<svg width="24" height="25" viewBox="0 0 24 25" fill="none" xmlns="http://www.w3.org/2000/svg">
<g id="Outlined / Hardware / headset">
<path id="&#240;&#159;&#148;&#185; Icon Color" fill-rule="evenodd" clip-rule="evenodd" d="M19 17.0024C19 17.5524 18.55 18.0024 18 18.0024H17V14.0024H19V14.0024V17.0024ZM7 18.0024H6C5.45 18.0024 5 17.5524 5 17.0024V14.0024H7V14.0024V18.0024ZM3 10.0024V17.0024C3 18.6624 4.34 20.0024 6 20.0024H9V12.0024H5V10.0024C5 6.13244 8.13 3.00244 12 3.00244C15.87 3.00244 19 6.13244 19 10.0024V12.0024H15V20.0024H18C19.66 20.0024 21 18.6624 21 17.0024V10.0024C21 5.03244 16.97 1.00244 12 1.00244C7.03 1.00244 3 5.03244 3 10.0024Z" fill="#EEEEEE"/>
</g>
</svg>
