<svg width="24" height="25" viewBox="0 0 24 25" fill="none" xmlns="http://www.w3.org/2000/svg">
<g id="Outlined / Action / thumb_down">
<path id="&#240;&#159;&#148;&#185; Icon Color" fill-rule="evenodd" clip-rule="evenodd" d="M6 3.00244C5.17 3.00244 4.46 3.50244 4.16 4.22244L1.14 11.2724C1.05 11.5024 1 11.7424 1 12.0024V14.0024C1 15.1024 1.9 16.0024 3 16.0024H9.31L8.36 20.5724L8.33 20.8924C8.33 21.3024 8.5 21.6824 8.77 21.9524L9.83 23.0024L16.42 16.4124C16.78 16.0524 17 15.5524 17 15.0024V5.00244C17 3.90244 16.1 3.00244 15 3.00244H6ZM10.66 19.3424L12 14.0024H3V12.0024L6 5.00244H15V15.0024L10.66 19.3424ZM23 3.00244V15.0024H19V3.00244H23Z" fill="#EEEEEE"/>
</g>
</svg>
