<svg width="24" height="25" viewBox="0 0 24 25" fill="none" xmlns="http://www.w3.org/2000/svg">
<g id="Outlined / Alert / error_outline">
<path id="&#240;&#159;&#148;&#185; Icon Color" fill-rule="evenodd" clip-rule="evenodd" d="M13 15.0024V17.0024H11V15.0024H13ZM13 7.00244V13.0024H11V7.00244H13ZM2 12.0024C2 17.5224 6.47 22.0024 11.99 22.0024C17.52 22.0024 22 17.5224 22 12.0024C22 6.48244 17.52 2.00244 11.99 2.00244C6.47 2.00244 2 6.48244 2 12.0024ZM4 12.0024C4 7.58244 7.58 4.00244 12 4.00244C16.42 4.00244 20 7.58244 20 12.0024C20 16.4224 16.42 20.0024 12 20.0024C7.58 20.0024 4 16.4224 4 12.0024Z" fill="#EEEEEE"/>
</g>
</svg>
