<svg width="24" height="25" viewBox="0 0 24 25" fill="none" xmlns="http://www.w3.org/2000/svg">
<g id="Outlined / Action / favorite / Default ">
<path id="&#240;&#159;&#148;&#185; Icon Color" fill-rule="evenodd" clip-rule="evenodd" d="M12 5.09244C10.91 3.81244 9.24 3.00244 7.5 3.00244C4.42 3.00244 2 5.42244 2 8.50244C2 12.2824 5.4 15.3624 10.55 20.0424L12 21.3524L13.45 20.0324C18.6 15.3624 22 12.2824 22 8.50244C22 5.42244 19.58 3.00244 16.5 3.00244C14.76 3.00244 13.09 3.81244 12 5.09244ZM12 18.6524L11.9 18.5524C7.14 14.2424 4 11.3924 4 8.50244C4 6.50244 5.5 5.00244 7.5 5.00244C9.04 5.00244 10.54 5.99244 11.07 7.36244H12.94C13.46 5.99244 14.96 5.00244 16.5 5.00244C18.5 5.00244 20 6.50244 20 8.50244C20 11.3924 16.86 14.2424 12.1 18.5524L12 18.6524Z" fill="#EEEEEE"/>
</g>
</svg>
