<svg width="42" height="37" viewBox="0 0 42 37" fill="none" xmlns="http://www.w3.org/2000/svg">
<path d="M6.68985 28.07L4.52985 33.15C4.48318 33.2767 4.40985 33.3767 4.30985 33.45C4.21651 33.5167 4.11318 33.55 3.99985 33.55C3.81985 33.55 3.68651 33.5 3.59985 33.4C3.51318 33.3 3.46985 33.1767 3.46985 33.03C3.46985 32.97 3.47985 32.9067 3.49985 32.84L5.98985 26.86C6.04318 26.7267 6.12318 26.6233 6.22985 26.55C6.34318 26.4767 6.46318 26.4467 6.58985 26.46C6.70985 26.46 6.81985 26.4967 6.91985 26.57C7.02652 26.6367 7.10318 26.7333 7.14985 26.86L9.60985 32.72C9.64318 32.8067 9.65985 32.8867 9.65985 32.96C9.65985 33.14 9.59985 33.2833 9.47985 33.39C9.36652 33.4967 9.23985 33.55 9.09985 33.55C8.97985 33.55 8.86985 33.5133 8.76985 33.44C8.67652 33.3667 8.60318 33.2667 8.54985 33.14L6.39985 28.13L6.68985 28.07ZM4.83985 31.93L5.38985 30.78H8.08985L8.27985 31.93H4.83985ZM12.5454 28.05C12.9254 28.05 13.2554 28.09 13.5354 28.17C13.8221 28.25 14.0421 28.3633 14.1954 28.51C14.3554 28.65 14.4354 28.82 14.4354 29.02C14.4354 29.1533 14.3954 29.28 14.3154 29.4C14.2354 29.5133 14.1187 29.57 13.9654 29.57C13.8587 29.57 13.7687 29.5567 13.6954 29.53C13.6287 29.4967 13.5687 29.4567 13.5154 29.41C13.4621 29.3633 13.3987 29.32 13.3254 29.28C13.2587 29.24 13.1554 29.21 13.0154 29.19C12.8821 29.1633 12.7821 29.15 12.7154 29.15C12.3754 29.15 12.0854 29.2233 11.8454 29.37C11.6121 29.5167 11.4321 29.7167 11.3054 29.97C11.1787 30.2167 11.1154 30.5033 11.1154 30.83C11.1154 31.15 11.1787 31.4367 11.3054 31.69C11.4387 31.9367 11.6187 32.1333 11.8454 32.28C12.0787 32.4267 12.3454 32.5 12.6454 32.5C12.8121 32.5 12.9554 32.49 13.0754 32.47C13.1954 32.45 13.2954 32.42 13.3754 32.38C13.4687 32.3267 13.5521 32.27 13.6254 32.21C13.6987 32.15 13.8087 32.12 13.9554 32.12C14.1287 32.12 14.2621 32.1767 14.3554 32.29C14.4487 32.3967 14.4954 32.53 14.4954 32.69C14.4954 32.8567 14.4021 33.01 14.2154 33.15C14.0287 33.2833 13.7821 33.3933 13.4754 33.48C13.1754 33.56 12.8487 33.6 12.4954 33.6C11.9687 33.6 11.5121 33.48 11.1254 33.24C10.7387 32.9933 10.4387 32.66 10.2254 32.24C10.0187 31.82 9.91539 31.35 9.91539 30.83C9.91539 30.2833 10.0254 29.8033 10.2454 29.39C10.4721 28.97 10.7821 28.6433 11.1754 28.41C11.5754 28.17 12.0321 28.05 12.5454 28.05ZM17.4995 28.05C17.8795 28.05 18.2095 28.09 18.4895 28.17C18.7762 28.25 18.9962 28.3633 19.1495 28.51C19.3095 28.65 19.3895 28.82 19.3895 29.02C19.3895 29.1533 19.3495 29.28 19.2695 29.4C19.1895 29.5133 19.0729 29.57 18.9195 29.57C18.8129 29.57 18.7229 29.5567 18.6495 29.53C18.5829 29.4967 18.5229 29.4567 18.4695 29.41C18.4162 29.3633 18.3529 29.32 18.2795 29.28C18.2129 29.24 18.1095 29.21 17.9695 29.19C17.8362 29.1633 17.7362 29.15 17.6695 29.15C17.3295 29.15 17.0395 29.2233 16.7995 29.37C16.5662 29.5167 16.3862 29.7167 16.2595 29.97C16.1329 30.2167 16.0695 30.5033 16.0695 30.83C16.0695 31.15 16.1329 31.4367 16.2595 31.69C16.3929 31.9367 16.5729 32.1333 16.7995 32.28C17.0329 32.4267 17.2995 32.5 17.5995 32.5C17.7662 32.5 17.9095 32.49 18.0295 32.47C18.1495 32.45 18.2495 32.42 18.3295 32.38C18.4229 32.3267 18.5062 32.27 18.5795 32.21C18.6529 32.15 18.7629 32.12 18.9095 32.12C19.0829 32.12 19.2162 32.1767 19.3095 32.29C19.4029 32.3967 19.4495 32.53 19.4495 32.69C19.4495 32.8567 19.3562 33.01 19.1695 33.15C18.9829 33.2833 18.7362 33.3933 18.4295 33.48C18.1295 33.56 17.8029 33.6 17.4495 33.6C16.9229 33.6 16.4662 33.48 16.0795 33.24C15.6929 32.9933 15.3929 32.66 15.1795 32.24C14.9729 31.82 14.8695 31.35 14.8695 30.83C14.8695 30.2833 14.9795 29.8033 15.1995 29.39C15.4262 28.97 15.7362 28.6433 16.1295 28.41C16.5295 28.17 16.9862 28.05 17.4995 28.05ZM25.2637 30.83C25.2637 31.3767 25.1403 31.86 24.8937 32.28C24.6537 32.6933 24.327 33.0167 23.9137 33.25C23.507 33.4833 23.0503 33.6 22.5437 33.6C22.037 33.6 21.577 33.4833 21.1637 33.25C20.757 33.0167 20.4303 32.6933 20.1837 32.28C19.9437 31.86 19.8237 31.3767 19.8237 30.83C19.8237 30.2833 19.9437 29.8033 20.1837 29.39C20.4303 28.97 20.757 28.6433 21.1637 28.41C21.577 28.17 22.037 28.05 22.5437 28.05C23.0503 28.05 23.507 28.17 23.9137 28.41C24.327 28.6433 24.6537 28.97 24.8937 29.39C25.1403 29.8033 25.2637 30.2833 25.2637 30.83ZM24.0637 30.83C24.0637 30.49 23.9937 30.1967 23.8537 29.95C23.7203 29.6967 23.537 29.5 23.3037 29.36C23.077 29.22 22.8237 29.15 22.5437 29.15C22.2637 29.15 22.007 29.22 21.7737 29.36C21.547 29.5 21.3637 29.6967 21.2237 29.95C21.0903 30.1967 21.0237 30.49 21.0237 30.83C21.0237 31.1633 21.0903 31.4567 21.2237 31.71C21.3637 31.9567 21.547 32.15 21.7737 32.29C22.007 32.43 22.2637 32.5 22.5437 32.5C22.8237 32.5 23.077 32.43 23.3037 32.29C23.537 32.15 23.7203 31.9567 23.8537 31.71C23.9937 31.4567 24.0637 31.1633 24.0637 30.83ZM30.0427 28.15C30.2161 28.15 30.3594 28.21 30.4727 28.33C30.5861 28.4433 30.6427 28.5867 30.6427 28.76V31.3C30.6427 32.0067 30.4461 32.5667 30.0527 32.98C29.6594 33.3933 29.0927 33.6 28.3527 33.6C27.6127 33.6 27.0461 33.3933 26.6527 32.98C26.2661 32.5667 26.0727 32.0067 26.0727 31.3V28.76C26.0727 28.5867 26.1294 28.4433 26.2427 28.33C26.3561 28.21 26.4994 28.15 26.6727 28.15C26.8461 28.15 26.9894 28.21 27.1027 28.33C27.2161 28.4433 27.2727 28.5867 27.2727 28.76V31.3C27.2727 31.7067 27.3627 32.01 27.5427 32.21C27.7227 32.4033 27.9927 32.5 28.3527 32.5C28.7194 32.5 28.9927 32.4033 29.1727 32.21C29.3527 32.01 29.4427 31.7067 29.4427 31.3V28.76C29.4427 28.5867 29.4994 28.4433 29.6127 28.33C29.7261 28.21 29.8694 28.15 30.0427 28.15ZM34.5607 28.05C35.054 28.05 35.4274 28.1533 35.6807 28.36C35.9407 28.5667 36.1174 28.8433 36.2107 29.19C36.3107 29.53 36.3607 29.91 36.3607 30.33V32.89C36.3607 33.0633 36.304 33.21 36.1907 33.33C36.0774 33.4433 35.934 33.5 35.7607 33.5C35.5874 33.5 35.444 33.4433 35.3307 33.33C35.2174 33.21 35.1607 33.0633 35.1607 32.89V30.33C35.1607 30.11 35.1307 29.9133 35.0707 29.74C35.0174 29.56 34.9174 29.4167 34.7707 29.31C34.624 29.2033 34.414 29.15 34.1407 29.15C33.874 29.15 33.6474 29.2033 33.4607 29.31C33.2807 29.4167 33.1407 29.56 33.0407 29.74C32.9474 29.9133 32.9007 30.11 32.9007 30.33V32.89C32.9007 33.0633 32.844 33.21 32.7307 33.33C32.6174 33.4433 32.474 33.5 32.3007 33.5C32.1274 33.5 31.984 33.4433 31.8707 33.33C31.7574 33.21 31.7007 33.0633 31.7007 32.89V28.76C31.7007 28.5867 31.7574 28.4433 31.8707 28.33C31.984 28.21 32.1274 28.15 32.3007 28.15C32.474 28.15 32.6174 28.21 32.7307 28.33C32.844 28.4433 32.9007 28.5867 32.9007 28.76V29.19L32.7507 29.16C32.8107 29.0467 32.8974 28.9267 33.0107 28.8C33.124 28.6667 33.2574 28.5433 33.4107 28.43C33.564 28.3167 33.7374 28.2267 33.9307 28.16C34.124 28.0867 34.334 28.05 34.5607 28.05ZM37.4765 28.25H39.8465C40.0065 28.25 40.1399 28.3033 40.2465 28.41C40.3532 28.5167 40.4065 28.65 40.4065 28.81C40.4065 28.9633 40.3532 29.0933 40.2465 29.2C40.1399 29.3 40.0065 29.35 39.8465 29.35H37.4765C37.3165 29.35 37.1832 29.2967 37.0765 29.19C36.9699 29.0833 36.9165 28.95 36.9165 28.79C36.9165 28.6367 36.9699 28.51 37.0765 28.41C37.1832 28.3033 37.3165 28.25 37.4765 28.25ZM38.5465 27C38.7199 27 38.8599 27.06 38.9665 27.18C39.0799 27.2933 39.1365 27.4367 39.1365 27.61V32.06C39.1365 32.1533 39.1532 32.23 39.1865 32.29C39.2265 32.35 39.2765 32.3933 39.3365 32.42C39.4032 32.4467 39.4732 32.46 39.5465 32.46C39.6265 32.46 39.6999 32.4467 39.7665 32.42C39.8332 32.3867 39.9099 32.37 39.9965 32.37C40.0899 32.37 40.1732 32.4133 40.2465 32.5C40.3265 32.5867 40.3665 32.7067 40.3665 32.86C40.3665 33.0467 40.2632 33.2 40.0565 33.32C39.8565 33.44 39.6399 33.5 39.4065 33.5C39.2665 33.5 39.1099 33.49 38.9365 33.47C38.7699 33.4433 38.6099 33.3867 38.4565 33.3C38.3099 33.2067 38.1865 33.0667 38.0865 32.88C37.9865 32.6933 37.9365 32.4367 37.9365 32.11V27.61C37.9365 27.4367 37.9932 27.2933 38.1065 27.18C38.2265 27.06 38.3732 27 38.5465 27Z" fill="#71737B"/>
<path fill-rule="evenodd" clip-rule="evenodd" d="M28.5925 15.5109C26.3374 14.0866 23.6842 13.3811 21 13.492C18.3158 13.3811 15.6626 14.0866 13.4075 15.5109C13.0733 15.7394 12.8745 16.1126 12.875 16.5106V19.5877H29.125V16.5106C29.1255 16.1126 28.9267 15.7394 28.5925 15.5109Z" stroke="#71737B" stroke-width="2.5" stroke-linecap="round" stroke-linejoin="round"/>
<path fill-rule="evenodd" clip-rule="evenodd" d="M25.375 5.56776C25.375 3.21117 23.4162 1.30078 21 1.30078C18.5838 1.30078 16.625 3.21117 16.625 5.56776C16.625 7.92434 18.5838 9.83473 21 9.83473C23.4162 9.83473 25.375 7.92434 25.375 5.56776Z" stroke="#71737B" stroke-width="2.5" stroke-linecap="round" stroke-linejoin="round"/>
</svg>
