<svg width="24" height="25" viewBox="0 0 24 25" fill="none" xmlns="http://www.w3.org/2000/svg">
<g id="Outlined / Action / restore">
<path id="&#240;&#159;&#148;&#185; Icon Color" fill-rule="evenodd" clip-rule="evenodd" d="M4 12.0024H1L5 15.9924L9 12.0024H6C6 8.13244 9.13 5.00244 13 5.00244C16.87 5.00244 20 8.13244 20 12.0024C20 15.8724 16.87 19.0024 13 19.0024C11.07 19.0024 9.32 18.2124 8.06 16.9424L6.64 18.3624C8.27 19.9924 10.51 21.0024 13 21.0024C17.97 21.0024 22 16.9724 22 12.0024C22 7.03244 17.97 3.00244 13 3.00244C8.03 3.00244 4 7.03244 4 12.0024ZM12 13.0024L16.25 15.5224L17.02 14.2424L13.5 12.1524V8.00244H12V13.0024Z" fill="#EEEEEE"/>
</g>
</svg>
