<svg width="40" height="40" viewBox="0 0 40 40" fill="none" xmlns="http://www.w3.org/2000/svg">
<path d="M7.4793 30.4487C7.6393 30.4487 7.7793 30.5087 7.8993 30.6287C8.02597 30.7421 8.0893 30.8854 8.0893 31.0587V36.8387C8.0893 37.0121 8.02597 37.1587 7.8993 37.2787C7.77264 37.3921 7.62597 37.4487 7.4593 37.4487C7.27264 37.4487 7.12264 37.3921 7.0093 37.2787C6.89597 37.1587 6.8393 37.0121 6.8393 36.8387V31.0587C6.8393 30.8854 6.8993 30.7421 7.0193 30.6287C7.1393 30.5087 7.29264 30.4487 7.4793 30.4487ZM11.9093 30.4487C12.096 30.4487 12.246 30.5087 12.3593 30.6287C12.4726 30.7421 12.5293 30.8854 12.5293 31.0587V36.8387C12.5293 37.0121 12.4693 37.1587 12.3493 37.2787C12.236 37.3921 12.0826 37.4487 11.8893 37.4487C11.7293 37.4487 11.586 37.3921 11.4593 37.2787C11.3393 37.1587 11.2793 37.0121 11.2793 36.8387V31.0587C11.2793 30.8854 11.3426 30.7421 11.4693 30.6287C11.596 30.5087 11.7426 30.4487 11.9093 30.4487ZM7.4493 33.3587H11.9093V34.5087H7.4493V33.3587ZM18.8756 34.7787C18.8756 35.3254 18.7523 35.8087 18.5056 36.2287C18.2656 36.6421 17.939 36.9654 17.5256 37.1987C17.119 37.4321 16.6623 37.5487 16.1556 37.5487C15.649 37.5487 15.189 37.4321 14.7756 37.1987C14.369 36.9654 14.0423 36.6421 13.7956 36.2287C13.5556 35.8087 13.4356 35.3254 13.4356 34.7787C13.4356 34.2321 13.5556 33.7521 13.7956 33.3387C14.0423 32.9187 14.369 32.5921 14.7756 32.3587C15.189 32.1187 15.649 31.9987 16.1556 31.9987C16.6623 31.9987 17.119 32.1187 17.5256 32.3587C17.939 32.5921 18.2656 32.9187 18.5056 33.3387C18.7523 33.7521 18.8756 34.2321 18.8756 34.7787ZM17.6756 34.7787C17.6756 34.4387 17.6056 34.1454 17.4656 33.8987C17.3323 33.6454 17.149 33.4487 16.9156 33.3087C16.689 33.1687 16.4356 33.0987 16.1556 33.0987C15.8756 33.0987 15.619 33.1687 15.3856 33.3087C15.159 33.4487 14.9756 33.6454 14.8356 33.8987C14.7023 34.1454 14.6356 34.4387 14.6356 34.7787C14.6356 35.1121 14.7023 35.4054 14.8356 35.6587C14.9756 35.9054 15.159 36.0987 15.3856 36.2387C15.619 36.3787 15.8756 36.4487 16.1556 36.4487C16.4356 36.4487 16.689 36.3787 16.9156 36.2387C17.149 36.0987 17.3323 35.9054 17.4656 35.6587C17.6056 35.4054 17.6756 35.1121 17.6756 34.7787ZM22.4947 31.9987C23.028 31.9987 23.4214 32.1287 23.6747 32.3887C23.928 32.6421 24.0947 32.9721 24.1747 33.3787L24.0047 33.2887L24.0847 33.1287C24.1647 32.9754 24.288 32.8121 24.4547 32.6387C24.6214 32.4587 24.8214 32.3087 25.0547 32.1887C25.2947 32.0621 25.5614 31.9987 25.8547 31.9987C26.3347 31.9987 26.698 32.1021 26.9447 32.3087C27.198 32.5154 27.3714 32.7921 27.4647 33.1387C27.558 33.4787 27.6047 33.8587 27.6047 34.2787V36.8387C27.6047 37.0121 27.548 37.1587 27.4347 37.2787C27.3214 37.3921 27.178 37.4487 27.0047 37.4487C26.8314 37.4487 26.688 37.3921 26.5747 37.2787C26.4614 37.1587 26.4047 37.0121 26.4047 36.8387V34.2787C26.4047 34.0587 26.378 33.8621 26.3247 33.6887C26.2714 33.5087 26.1747 33.3654 26.0347 33.2587C25.8947 33.1521 25.6947 33.0987 25.4347 33.0987C25.1814 33.0987 24.9647 33.1521 24.7847 33.2587C24.6047 33.3654 24.468 33.5087 24.3747 33.6887C24.288 33.8621 24.2447 34.0587 24.2447 34.2787V36.8387C24.2447 37.0121 24.188 37.1587 24.0747 37.2787C23.9614 37.3921 23.818 37.4487 23.6447 37.4487C23.4714 37.4487 23.328 37.3921 23.2147 37.2787C23.1014 37.1587 23.0447 37.0121 23.0447 36.8387V34.2787C23.0447 34.0587 23.018 33.8621 22.9647 33.6887C22.9114 33.5087 22.8147 33.3654 22.6747 33.2587C22.5347 33.1521 22.3347 33.0987 22.0747 33.0987C21.8214 33.0987 21.6047 33.1521 21.4247 33.2587C21.2447 33.3654 21.108 33.5087 21.0147 33.6887C20.928 33.8621 20.8847 34.0587 20.8847 34.2787V36.8387C20.8847 37.0121 20.828 37.1587 20.7147 37.2787C20.6014 37.3921 20.458 37.4487 20.2847 37.4487C20.1114 37.4487 19.968 37.3921 19.8547 37.2787C19.7414 37.1587 19.6847 37.0121 19.6847 36.8387V32.7087C19.6847 32.5354 19.7414 32.3921 19.8547 32.2787C19.968 32.1587 20.1114 32.0987 20.2847 32.0987C20.458 32.0987 20.6014 32.1587 20.7147 32.2787C20.828 32.3921 20.8847 32.5354 20.8847 32.7087V33.1387L20.7347 33.1087C20.7947 32.9954 20.878 32.8754 20.9847 32.7487C21.0914 32.6154 21.2214 32.4921 21.3747 32.3787C21.528 32.2654 21.698 32.1754 21.8847 32.1087C22.0714 32.0354 22.2747 31.9987 22.4947 31.9987ZM31.1823 37.5487C30.6156 37.5487 30.1223 37.4321 29.7023 37.1987C29.2889 36.9587 28.9689 36.6354 28.7423 36.2287C28.5223 35.8221 28.4123 35.3621 28.4123 34.8487C28.4123 34.2487 28.5323 33.7387 28.7723 33.3187C29.0189 32.8921 29.3389 32.5654 29.7323 32.3387C30.1256 32.1121 30.5423 31.9987 30.9823 31.9987C31.3223 31.9987 31.6423 32.0687 31.9423 32.2087C32.2489 32.3487 32.5189 32.5421 32.7523 32.7887C32.9856 33.0287 33.1689 33.3087 33.3023 33.6287C33.4423 33.9487 33.5123 34.2887 33.5123 34.6487C33.5056 34.8087 33.4423 34.9387 33.3223 35.0387C33.2023 35.1387 33.0623 35.1887 32.9023 35.1887H29.0823L28.7823 34.1887H32.4523L32.2323 34.3887V34.1187C32.2189 33.9254 32.1489 33.7521 32.0223 33.5987C31.9023 33.4454 31.7489 33.3254 31.5623 33.2387C31.3823 33.1454 31.1889 33.0987 30.9823 33.0987C30.7823 33.0987 30.5956 33.1254 30.4223 33.1787C30.2489 33.2321 30.0989 33.3221 29.9723 33.4487C29.8456 33.5754 29.7456 33.7454 29.6723 33.9587C29.5989 34.1721 29.5623 34.4421 29.5623 34.7687C29.5623 35.1287 29.6356 35.4354 29.7823 35.6887C29.9356 35.9354 30.1289 36.1254 30.3623 36.2587C30.6023 36.3854 30.8556 36.4487 31.1223 36.4487C31.3689 36.4487 31.5656 36.4287 31.7123 36.3887C31.8589 36.3487 31.9756 36.3021 32.0623 36.2487C32.1556 36.1887 32.2389 36.1387 32.3123 36.0987C32.4323 36.0387 32.5456 36.0087 32.6523 36.0087C32.7989 36.0087 32.9189 36.0587 33.0123 36.1587C33.1123 36.2587 33.1623 36.3754 33.1623 36.5087C33.1623 36.6887 33.0689 36.8521 32.8823 36.9987C32.7089 37.1454 32.4656 37.2754 32.1523 37.3887C31.8389 37.4954 31.5156 37.5487 31.1823 37.5487Z" fill="#71737B"/>
<path fill-rule="evenodd" clip-rule="evenodd" d="M11.6667 13.5667V23.7099H18.1667V18.6383H22.0667V23.7099H28.5667V13.5667L20.1167 4.69141L11.6667 13.5667Z" stroke="#71737B" stroke-width="2.5" stroke-linecap="round" stroke-linejoin="round"/>
</svg>
