<svg width="24" height="25" viewBox="0 0 24 25" fill="none" xmlns="http://www.w3.org/2000/svg">
<g id="Outlined / AV / library_music">
<path id="&#240;&#159;&#148;&#185; Icon Color" fill-rule="evenodd" clip-rule="evenodd" d="M8 2.00244C6.9 2.00244 6 2.90244 6 4.00244V16.0024C6 17.1024 6.9 18.0024 8 18.0024H20C21.1 18.0024 22 17.1024 22 16.0024V4.00244C22 2.90244 21.1 2.00244 20 2.00244H8ZM8 16.0024V4.00244H20V16.0024H8ZM15 12.5024V7.00244H18V5.00244H14V10.5124C13.58 10.1924 13.07 10.0024 12.5 10.0024C11.12 10.0024 10 11.1224 10 12.5024C10 13.8824 11.12 15.0024 12.5 15.0024C13.88 15.0024 15 13.8824 15 12.5024ZM2 6.00244V20.0024C2 21.1024 2.9 22.0024 4 22.0024H18V20.0024H4V6.00244H2Z" fill="#EEEEEE"/>
</g>
</svg>
