<svg width="24" height="25" viewBox="0 0 24 25" fill="none" xmlns="http://www.w3.org/2000/svg">
<g id="Outlined / AV / recent_actors">
<path id="&#240;&#159;&#148;&#185; Icon Color" fill-rule="evenodd" clip-rule="evenodd" d="M23 5.00244V19.0024H21V5.00244H23ZM19 5.00244V19.0024H17V5.00244H19ZM15 6.00244V18.0024C15 18.5524 14.55 19.0024 14 19.0024H2C1.45 19.0024 1 18.5524 1 18.0024V6.00244C1 5.45244 1.45 5.00244 2 5.00244H14C14.55 5.00244 15 5.45244 15 6.00244ZM13 7.00244H3V17.0024H13V7.00244ZM6.05005 9.94243C6.05005 8.86548 6.92309 7.99243 8.00005 7.99243C9.077 7.99243 9.95005 8.86548 9.95005 9.94243C9.95005 11.0194 9.077 11.8924 8.00005 11.8924C6.92309 11.8924 6.05005 11.0194 6.05005 9.94243ZM11.89 16.0023H4.10999V15.3523C4.10999 14.0523 6.69999 13.4023 7.99999 13.4023C9.29999 13.4023 11.89 14.0523 11.89 15.3523V16.0023Z" fill="#EEEEEE"/>
</g>
</svg>
