<svg width="24" height="25" viewBox="0 0 24 25" fill="none" xmlns="http://www.w3.org/2000/svg">
<g id="Outlined / Action / search">
<path id="&#240;&#159;&#148;&#185; Icon Color" fill-rule="evenodd" clip-rule="evenodd" d="M14.71 14.0024L14.43 13.7324C15.41 12.5924 16 11.1124 16 9.50244C16 5.91244 13.09 3.00244 9.5 3.00244C5.91 3.00244 3 5.91244 3 9.50244C3 13.0924 5.91 16.0024 9.5 16.0024C11.11 16.0024 12.59 15.4124 13.73 14.4324L14 14.7124V15.5024L19 20.4924L20.49 19.0024L15.5 14.0024H14.71ZM5 9.50244C5 7.01244 7.01 5.00244 9.5 5.00244C11.99 5.00244 14 7.01244 14 9.50244C14 11.9924 11.99 14.0024 9.5 14.0024C7.01 14.0024 5 11.9924 5 9.50244Z" fill="#EEEEEE"/>
</g>
</svg>
