<svg width="24" height="25" viewBox="0 0 24 25" fill="none" xmlns="http://www.w3.org/2000/svg">
<g id="Equalizer">
<mask id="mask0_0_997" style="mask-type:luminance" maskUnits="userSpaceOnUse" x="0" y="0" width="24" height="25">
<rect id="Equalizer (Background/Mask)" y="0.00244141" width="24" height="24" fill="white"/>
</mask>
<g mask="url(#mask0_0_997)">
<g id="Group">
<g id="Group_2">
<path id="Vector" d="M8.89453 18.6479V21.2213C8.89453 21.6528 9.2443 22.0026 9.67578 22.0026C10.1073 22.0026 10.457 21.6528 10.457 21.2213V18.6479C10.457 18.2165 10.1073 17.8667 9.67578 17.8667C9.2443 17.8667 8.89453 18.2165 8.89453 18.6479Z" fill="#EEEEEE"/>
</g>
</g>
<g id="Group_3">
<g id="Group_4">
<path id="Vector_2" d="M10.457 14.7368V2.78369C10.457 2.35221 10.1073 2.00244 9.67578 2.00244C9.2443 2.00244 8.89453 2.35221 8.89453 2.78369V14.7368H8.11328C7.6818 14.7368 7.33203 15.0866 7.33203 15.5181C7.33203 15.9496 7.6818 16.2993 8.11328 16.2993H11.2383C11.6698 16.2993 12.0195 15.9496 12.0195 15.5181C12.0195 15.0866 11.6698 14.7368 11.2383 14.7368H10.457Z" fill="#EEEEEE"/>
</g>
</g>
<g id="Group_5">
<g id="Group_6">
<path id="Vector_3" d="M3.58203 8.41357V21.2213C3.58203 21.6528 3.9318 22.0026 4.36328 22.0026C4.79477 22.0026 5.14453 21.6528 5.14453 21.2213V8.41357C5.14453 7.98209 4.79477 7.63232 4.36328 7.63232C3.9318 7.63232 3.58203 7.98209 3.58203 8.41357Z" fill="#EEEEEE"/>
</g>
</g>
<g id="Group_7">
<g id="Group_8">
<path id="Vector_4" d="M5.14453 4.51197V2.78369C5.14453 2.35221 4.79477 2.00244 4.36328 2.00244C3.9318 2.00244 3.58203 2.35221 3.58203 2.78369V4.51197H2.80078C2.3693 4.51197 2.01953 4.86174 2.01953 5.29322C2.01953 5.72471 2.3693 6.07447 2.80078 6.07447H5.92578C6.35727 6.07447 6.70703 5.72471 6.70703 5.29322C6.70703 4.86174 6.35727 4.51197 5.92578 4.51197H5.14453Z" fill="#EEEEEE"/>
</g>
</g>
<g id="Group_9">
<g id="Group_10">
<path id="Vector_5" d="M18.8555 9.46997V21.2212C18.8555 21.6527 19.2052 22.0025 19.6367 22.0025C20.0682 22.0025 20.418 21.6527 20.418 21.2212V9.46997C20.418 9.03849 20.0682 8.68872 19.6367 8.68872C19.2052 8.68872 18.8555 9.03849 18.8555 9.46997Z" fill="#EEEEEE"/>
</g>
</g>
<g id="Group_11">
<g id="Group_12">
<path id="Vector_6" d="M20.418 5.56189V2.78369C20.418 2.35221 20.0682 2.00244 19.6367 2.00244C19.2052 2.00244 18.8555 2.35221 18.8555 2.78369V5.56189H18.0742C17.6427 5.56189 17.293 5.91166 17.293 6.34314C17.293 6.77463 17.6427 7.12439 18.0742 7.12439H21.1992C21.6307 7.12439 21.9805 6.77463 21.9805 6.34314C21.9805 5.91166 21.6307 5.56189 21.1992 5.56189H20.418Z" fill="#EEEEEE"/>
</g>
</g>
<g id="Group_13">
<g id="Group_14">
<path id="Vector_7" d="M13.7773 15.2104V21.2213C13.7773 21.6528 14.1271 22.0026 14.5586 22.0026C14.9901 22.0026 15.3398 21.6528 15.3398 21.2213V15.2104C15.3398 14.779 14.9901 14.4292 14.5586 14.4292C14.1271 14.4292 13.7773 14.779 13.7773 15.2104Z" fill="#EEEEEE"/>
</g>
</g>
<g id="Group_15">
<g id="Group_16">
<path id="Vector_8" d="M15.3398 11.3088V2.78369C15.3398 2.35221 14.9901 2.00244 14.5586 2.00244C14.1271 2.00244 13.7773 2.35221 13.7773 2.78369V11.3088H12.9961C12.5646 11.3088 12.2148 11.6586 12.2148 12.0901C12.2148 12.5216 12.5646 12.8713 12.9961 12.8713H16.1211C16.5526 12.8713 16.9023 12.5216 16.9023 12.0901C16.9023 11.6586 16.5526 11.3088 16.1211 11.3088H15.3398Z" fill="#EEEEEE"/>
</g>
</g>
</g>
</g>
</svg>
