<svg width="24" height="25" viewBox="0 0 24 25" fill="none" xmlns="http://www.w3.org/2000/svg">
<g id="Outlined / AV / music_video">
<path id="&#240;&#159;&#148;&#185; Icon Color" fill-rule="evenodd" clip-rule="evenodd" d="M3 3.00244C1.9 3.00244 1 3.90244 1 5.00244V19.0024C1 20.1024 1.9 21.0024 3 21.0024H21C22.1 21.0024 23 20.1024 23 19.0024V5.00244C23 3.90244 22.1 3.00244 21 3.00244H3ZM3 19.0024V5.00244H21V19.0024H3ZM11 12.0024C11.35 12.0024 11.69 12.0724 12 12.1824V6.00244H17V8.00244H14V15.0324C13.98 16.6724 12.65 18.0024 11 18.0024C9.34 18.0024 8 16.6624 8 15.0024C8 13.3424 9.34 12.0024 11 12.0024Z" fill="#EEEEEE"/>
</g>
</svg>
