<svg width="24" height="25" viewBox="0 0 24 25" fill="none" xmlns="http://www.w3.org/2000/svg">
<g id="Outlined / Action / thumb_up">
<path id="&#240;&#159;&#148;&#185; Icon Color" fill-rule="evenodd" clip-rule="evenodd" d="M18 21.0024C18.83 21.0024 19.54 20.5024 19.84 19.7824L22.86 12.7324C22.95 12.5024 23 12.2624 23 12.0024V10.0024C23 8.90244 22.1 8.00244 21 8.00244H14.69L15.64 3.43244L15.67 3.11244C15.67 2.70244 15.5 2.32244 15.23 2.05244L14.17 1.00244L7.58 7.59244C7.22 7.95244 7 8.45244 7 9.00244V19.0024C7 20.1024 7.9 21.0024 9 21.0024H18ZM13.34 4.66235L12 10.0024H21V12.0024L18 19.0024H9V9.00235L13.34 4.66235ZM5 9.00244V21.0024H1V9.00244H5Z" fill="#EEEEEE"/>
</g>
</svg>
