<svg width="16" height="16" viewBox="0 0 16 16" fill="none" xmlns="http://www.w3.org/2000/svg">
<path fill-rule="evenodd" clip-rule="evenodd" d="M12.0001 14.0001C12.5534 14.0001 13.0267 13.6667 13.2267 13.1867L15.2401 8.48675C15.3001 8.33341 15.3334 8.17341 15.3334 8.00008V6.66675C15.3334 5.93341 14.7334 5.33341 14.0001 5.33341H9.79342L10.4267 2.28675L10.4467 2.07341C10.4467 1.80008 10.3334 1.54675 10.1534 1.36675L9.44675 0.666748L5.05341 5.06008C4.81341 5.30008 4.66675 5.63341 4.66675 6.00008V12.6667C4.66675 13.4001 5.26675 14.0001 6.00008 14.0001H12.0001ZM8.89333 3.10669L8 6.66669H14V8.00002L12 12.6667H6V6.00002L8.89333 3.10669ZM3.33341 6V14H0.666748V6H3.33341Z" fill="#CBFB5E"/>
</svg>
