<svg width="24" height="25" viewBox="0 0 24 25" fill="none" xmlns="http://www.w3.org/2000/svg">
<g id="Outlined / AV / album">
<path id="&#240;&#159;&#148;&#185; Icon Color" fill-rule="evenodd" clip-rule="evenodd" d="M2 12.0024C2 17.5224 6.48 22.0024 12 22.0024C17.52 22.0024 22 17.5224 22 12.0024C22 6.48244 17.52 2.00244 12 2.00244C6.48 2.00244 2 6.48244 2 12.0024ZM4 12.0024C4 7.59244 7.59 4.00244 12 4.00244C16.41 4.00244 20 7.59244 20 12.0024C20 16.4124 16.41 20.0024 12 20.0024C7.59 20.0024 4 16.4124 4 12.0024ZM7.5 12.0024C7.5 14.4924 9.51 16.5024 12 16.5024C14.49 16.5024 16.5 14.4924 16.5 12.0024C16.5 9.51244 14.49 7.50244 12 7.50244C9.51 7.50244 7.5 9.51244 7.5 12.0024ZM11 12.0024C11 11.4524 11.45 11.0024 12 11.0024C12.55 11.0024 13 11.4524 13 12.0024C13 12.5524 12.55 13.0024 12 13.0024C11.45 13.0024 11 12.5524 11 12.0024Z" fill="#EEEEEE"/>
</g>
</svg>
