<svg width="40" height="41" viewBox="0 0 40 41" fill="none" xmlns="http://www.w3.org/2000/svg">
<path d="M4.0579 30.5H7.4079C7.58123 30.5 7.72456 30.5567 7.8379 30.67C7.9579 30.7767 8.0179 30.9167 8.0179 31.09C8.0179 31.2567 7.9579 31.3933 7.8379 31.5C7.72456 31.6 7.58123 31.65 7.4079 31.65H4.6079L4.6979 31.48V33.43L4.6179 33.35H6.9579C7.13123 33.35 7.27456 33.4067 7.3879 33.52C7.5079 33.6267 7.5679 33.7667 7.5679 33.94C7.5679 34.1067 7.5079 34.2433 7.3879 34.35C7.27456 34.45 7.13123 34.5 6.9579 34.5H4.6479L4.6979 34.42V36.44L4.6179 36.35H7.4079C7.58123 36.35 7.72456 36.41 7.8379 36.53C7.9579 36.6433 8.0179 36.7767 8.0179 36.93C8.0179 37.0967 7.9579 37.2333 7.8379 37.34C7.72456 37.4467 7.58123 37.5 7.4079 37.5H4.0579C3.88456 37.5 3.7379 37.4433 3.6179 37.33C3.50456 37.21 3.4479 37.0633 3.4479 36.89V31.11C3.4479 30.9367 3.50456 30.7933 3.6179 30.68C3.7379 30.56 3.88456 30.5 4.0579 30.5ZM8.93937 32.15C9.13271 32.15 9.29604 32.2333 9.42937 32.4L12.7694 36.55C12.856 36.6567 12.8994 36.7767 12.8994 36.91C12.8994 37.0767 12.836 37.22 12.7094 37.34C12.5827 37.46 12.4427 37.52 12.2894 37.52C12.096 37.52 11.9327 37.4333 11.7994 37.26L8.45937 33.11C8.37271 33.0033 8.32937 32.8833 8.32937 32.75C8.32937 32.5767 8.38937 32.4333 8.50937 32.32C8.63604 32.2067 8.77937 32.15 8.93937 32.15ZM8.94937 37.51C8.81604 37.51 8.68271 37.46 8.54937 37.36C8.42271 37.2533 8.35937 37.1267 8.35937 36.98C8.35937 36.8467 8.40937 36.72 8.50937 36.6L10.0394 34.73L10.6394 35.73L9.42937 37.26C9.30271 37.4267 9.14271 37.51 8.94937 37.51ZM12.2794 32.15C12.4394 32.15 12.5727 32.2067 12.6794 32.32C12.7927 32.4267 12.8494 32.55 12.8494 32.69C12.8494 32.7567 12.8394 32.8233 12.8194 32.89C12.7994 32.9567 12.7627 33.02 12.7094 33.08L11.1994 34.92L10.5694 34.05L11.7994 32.42C11.9327 32.24 12.0927 32.15 12.2794 32.15ZM16.2312 32.05C16.6979 32.05 17.1146 32.17 17.4812 32.41C17.8546 32.6433 18.1479 32.9667 18.3612 33.38C18.5812 33.7933 18.6912 34.2733 18.6912 34.82C18.6912 35.3667 18.5812 35.85 18.3612 36.27C18.1479 36.6833 17.8579 37.01 17.4912 37.25C17.1312 37.4833 16.7246 37.6 16.2712 37.6C16.0046 37.6 15.7546 37.5567 15.5212 37.47C15.2879 37.3833 15.0812 37.2733 14.9012 37.14C14.7279 37.0067 14.5912 36.8733 14.4912 36.74C14.3979 36.6 14.3512 36.4833 14.3512 36.39L14.6612 36.26V38.89C14.6612 39.0633 14.6046 39.2067 14.4912 39.32C14.3779 39.44 14.2346 39.5 14.0612 39.5C13.8879 39.5 13.7446 39.4433 13.6312 39.33C13.5179 39.2167 13.4612 39.07 13.4612 38.89V32.76C13.4612 32.5867 13.5179 32.4433 13.6312 32.33C13.7446 32.21 13.8879 32.15 14.0612 32.15C14.2346 32.15 14.3779 32.21 14.4912 32.33C14.6046 32.4433 14.6612 32.5867 14.6612 32.76V33.25L14.4912 33.16C14.4912 33.0733 14.5379 32.97 14.6312 32.85C14.7246 32.7233 14.8512 32.6 15.0112 32.48C15.1712 32.3533 15.3546 32.25 15.5612 32.17C15.7746 32.09 15.9979 32.05 16.2312 32.05ZM16.0812 33.15C15.7879 33.15 15.5312 33.2233 15.3112 33.37C15.0912 33.5167 14.9179 33.7167 14.7912 33.97C14.6712 34.2167 14.6112 34.5 14.6112 34.82C14.6112 35.1333 14.6712 35.42 14.7912 35.68C14.9179 35.9333 15.0912 36.1333 15.3112 36.28C15.5312 36.4267 15.7879 36.5 16.0812 36.5C16.3746 36.5 16.6279 36.4267 16.8412 36.28C17.0612 36.1333 17.2312 35.9333 17.3512 35.68C17.4779 35.42 17.5412 35.1333 17.5412 34.82C17.5412 34.5 17.4779 34.2167 17.3512 33.97C17.2312 33.7167 17.0612 33.5167 16.8412 33.37C16.6279 33.2233 16.3746 33.15 16.0812 33.15ZM20.7994 36.89C20.7994 37.0633 20.7394 37.21 20.6194 37.33C20.506 37.4433 20.3627 37.5 20.1894 37.5C20.0227 37.5 19.8827 37.4433 19.7694 37.33C19.656 37.21 19.5994 37.0633 19.5994 36.89V30.71C19.5994 30.5367 19.656 30.3933 19.7694 30.28C19.8894 30.16 20.036 30.1 20.2094 30.1C20.3827 30.1 20.5227 30.16 20.6294 30.28C20.7427 30.3933 20.7994 30.5367 20.7994 30.71V36.89ZM27.0458 34.83C27.0458 35.3767 26.9225 35.86 26.6758 36.28C26.4358 36.6933 26.1092 37.0167 25.6958 37.25C25.2892 37.4833 24.8325 37.6 24.3258 37.6C23.8192 37.6 23.3592 37.4833 22.9458 37.25C22.5392 37.0167 22.2125 36.6933 21.9658 36.28C21.7258 35.86 21.6058 35.3767 21.6058 34.83C21.6058 34.2833 21.7258 33.8033 21.9658 33.39C22.2125 32.97 22.5392 32.6433 22.9458 32.41C23.3592 32.17 23.8192 32.05 24.3258 32.05C24.8325 32.05 25.2892 32.17 25.6958 32.41C26.1092 32.6433 26.4358 32.97 26.6758 33.39C26.9225 33.8033 27.0458 34.2833 27.0458 34.83ZM25.8458 34.83C25.8458 34.49 25.7758 34.1967 25.6358 33.95C25.5025 33.6967 25.3192 33.5 25.0858 33.36C24.8592 33.22 24.6058 33.15 24.3258 33.15C24.0458 33.15 23.7892 33.22 23.5558 33.36C23.3292 33.5 23.1458 33.6967 23.0058 33.95C22.8725 34.1967 22.8058 34.49 22.8058 34.83C22.8058 35.1633 22.8725 35.4567 23.0058 35.71C23.1458 35.9567 23.3292 36.15 23.5558 36.29C23.7892 36.43 24.0458 36.5 24.3258 36.5C24.6058 36.5 24.8592 36.43 25.0858 36.29C25.3192 36.15 25.5025 35.9567 25.6358 35.71C25.7758 35.4567 25.8458 35.1633 25.8458 34.83ZM28.4549 37.5C28.2816 37.5 28.1382 37.4433 28.0249 37.33C27.9116 37.21 27.8549 37.0633 27.8549 36.89V32.76C27.8549 32.5867 27.9116 32.4433 28.0249 32.33C28.1382 32.21 28.2816 32.15 28.4549 32.15C28.6282 32.15 28.7716 32.21 28.8849 32.33C28.9982 32.4433 29.0549 32.5867 29.0549 32.76V33.7L28.9849 33.03C29.0582 32.87 29.1516 32.73 29.2649 32.61C29.3849 32.4833 29.5182 32.38 29.6649 32.3C29.8116 32.2133 29.9682 32.15 30.1349 32.11C30.3016 32.07 30.4682 32.05 30.6349 32.05C30.8349 32.05 31.0016 32.1067 31.1349 32.22C31.2749 32.3333 31.3449 32.4667 31.3449 32.62C31.3449 32.84 31.2882 33 31.1749 33.1C31.0616 33.1933 30.9382 33.24 30.8049 33.24C30.6782 33.24 30.5616 33.2167 30.4549 33.17C30.3549 33.1233 30.2382 33.1 30.1049 33.1C29.9849 33.1 29.8616 33.13 29.7349 33.19C29.6149 33.2433 29.5016 33.33 29.3949 33.45C29.2949 33.57 29.2116 33.72 29.1449 33.9C29.0849 34.0733 29.0549 34.28 29.0549 34.52V36.89C29.0549 37.0633 28.9982 37.21 28.8849 37.33C28.7716 37.4433 28.6282 37.5 28.4549 37.5ZM34.2451 37.6C33.6784 37.6 33.1851 37.4833 32.7651 37.25C32.3517 37.01 32.0317 36.6867 31.8051 36.28C31.5851 35.8733 31.4751 35.4133 31.4751 34.9C31.4751 34.3 31.5951 33.79 31.8351 33.37C32.0817 32.9433 32.4017 32.6167 32.7951 32.39C33.1884 32.1633 33.6051 32.05 34.0451 32.05C34.3851 32.05 34.7051 32.12 35.0051 32.26C35.3117 32.4 35.5817 32.5933 35.8151 32.84C36.0484 33.08 36.2317 33.36 36.3651 33.68C36.5051 34 36.5751 34.34 36.5751 34.7C36.5684 34.86 36.5051 34.99 36.3851 35.09C36.2651 35.19 36.1251 35.24 35.9651 35.24H32.1451L31.8451 34.24H35.5151L35.2951 34.44V34.17C35.2817 33.9767 35.2117 33.8033 35.0851 33.65C34.9651 33.4967 34.8117 33.3767 34.6251 33.29C34.4451 33.1967 34.2517 33.15 34.0451 33.15C33.8451 33.15 33.6584 33.1767 33.4851 33.23C33.3117 33.2833 33.1617 33.3733 33.0351 33.5C32.9084 33.6267 32.8084 33.7967 32.7351 34.01C32.6617 34.2233 32.6251 34.4933 32.6251 34.82C32.6251 35.18 32.6984 35.4867 32.8451 35.74C32.9984 35.9867 33.1917 36.1767 33.4251 36.31C33.6651 36.4367 33.9184 36.5 34.1851 36.5C34.4317 36.5 34.6284 36.48 34.7751 36.44C34.9217 36.4 35.0384 36.3533 35.1251 36.3C35.2184 36.24 35.3017 36.19 35.3751 36.15C35.4951 36.09 35.6084 36.06 35.7151 36.06C35.8617 36.06 35.9817 36.11 36.0751 36.21C36.1751 36.31 36.2251 36.4267 36.2251 36.56C36.2251 36.74 36.1317 36.9033 35.9451 37.05C35.7717 37.1967 35.5284 37.3267 35.2151 37.44C34.9017 37.5467 34.5784 37.6 34.2451 37.6Z" fill="#CBFB5E"/>
<path fill-rule="evenodd" clip-rule="evenodd" d="M19.9102 23.6279C19.9102 23.6279 13.0352 17.5322 13.0352 12.0461C13.0352 8.34286 16.1132 5.34082 19.9102 5.34082C23.7071 5.34082 26.7852 8.34286 26.7852 12.0461C26.7852 17.5322 19.9102 23.6279 19.9102 23.6279Z" stroke="#CBFB5E" stroke-width="2.5" stroke-linecap="round" stroke-linejoin="round"/>
<path fill-rule="evenodd" clip-rule="evenodd" d="M23.0352 12.0459C23.0352 10.3626 21.6361 8.99805 19.9102 8.99805C18.1843 8.99805 16.7852 10.3626 16.7852 12.0459C16.7852 13.7292 18.1843 15.0937 19.9102 15.0937C21.6361 15.0937 23.0352 13.7292 23.0352 12.0459Z" stroke="#CBFB5E" stroke-width="2.5" stroke-linecap="round" stroke-linejoin="round"/>
</svg>
