<svg width="42" height="41" viewBox="0 0 42 41" fill="none" xmlns="http://www.w3.org/2000/svg">
<path d="M6.68988 32.07L4.52988 37.15C4.48321 37.2767 4.40988 37.3767 4.30988 37.45C4.21655 37.5167 4.11321 37.55 3.99988 37.55C3.81988 37.55 3.68655 37.5 3.59988 37.4C3.51321 37.3 3.46988 37.1767 3.46988 37.03C3.46988 36.97 3.47988 36.9067 3.49988 36.84L5.98988 30.86C6.04321 30.7267 6.12321 30.6233 6.22988 30.55C6.34321 30.4767 6.46321 30.4467 6.58988 30.46C6.70988 30.46 6.81988 30.4967 6.91988 30.57C7.02655 30.6367 7.10321 30.7333 7.14988 30.86L9.60988 36.72C9.64321 36.8067 9.65988 36.8867 9.65988 36.96C9.65988 37.14 9.59988 37.2833 9.47988 37.39C9.36655 37.4967 9.23988 37.55 9.09988 37.55C8.97988 37.55 8.86988 37.5133 8.76988 37.44C8.67655 37.3667 8.60321 37.2667 8.54988 37.14L6.39988 32.13L6.68988 32.07ZM4.83988 35.93L5.38988 34.78H8.08988L8.27988 35.93H4.83988ZM12.5454 32.05C12.9254 32.05 13.2554 32.09 13.5354 32.17C13.8221 32.25 14.0421 32.3633 14.1954 32.51C14.3554 32.65 14.4354 32.82 14.4354 33.02C14.4354 33.1533 14.3954 33.28 14.3154 33.4C14.2354 33.5133 14.1188 33.57 13.9654 33.57C13.8588 33.57 13.7688 33.5567 13.6954 33.53C13.6288 33.4967 13.5688 33.4567 13.5154 33.41C13.4621 33.3633 13.3988 33.32 13.3254 33.28C13.2588 33.24 13.1554 33.21 13.0154 33.19C12.8821 33.1633 12.7821 33.15 12.7154 33.15C12.3754 33.15 12.0854 33.2233 11.8454 33.37C11.6121 33.5167 11.4321 33.7167 11.3054 33.97C11.1788 34.2167 11.1154 34.5033 11.1154 34.83C11.1154 35.15 11.1788 35.4367 11.3054 35.69C11.4388 35.9367 11.6188 36.1333 11.8454 36.28C12.0788 36.4267 12.3454 36.5 12.6454 36.5C12.8121 36.5 12.9554 36.49 13.0754 36.47C13.1954 36.45 13.2954 36.42 13.3754 36.38C13.4688 36.3267 13.5521 36.27 13.6254 36.21C13.6988 36.15 13.8088 36.12 13.9554 36.12C14.1288 36.12 14.2621 36.1767 14.3554 36.29C14.4488 36.3967 14.4954 36.53 14.4954 36.69C14.4954 36.8567 14.4021 37.01 14.2154 37.15C14.0288 37.2833 13.7821 37.3933 13.4754 37.48C13.1754 37.56 12.8488 37.6 12.4954 37.6C11.9688 37.6 11.5121 37.48 11.1254 37.24C10.7388 36.9933 10.4388 36.66 10.2254 36.24C10.0188 35.82 9.91542 35.35 9.91542 34.83C9.91542 34.2833 10.0254 33.8033 10.2454 33.39C10.4721 32.97 10.7821 32.6433 11.1754 32.41C11.5754 32.17 12.0321 32.05 12.5454 32.05ZM17.4996 32.05C17.8796 32.05 18.2096 32.09 18.4896 32.17C18.7762 32.25 18.9962 32.3633 19.1496 32.51C19.3096 32.65 19.3896 32.82 19.3896 33.02C19.3896 33.1533 19.3496 33.28 19.2696 33.4C19.1896 33.5133 19.0729 33.57 18.9196 33.57C18.8129 33.57 18.7229 33.5567 18.6496 33.53C18.5829 33.4967 18.5229 33.4567 18.4696 33.41C18.4162 33.3633 18.3529 33.32 18.2796 33.28C18.2129 33.24 18.1096 33.21 17.9696 33.19C17.8362 33.1633 17.7362 33.15 17.6696 33.15C17.3296 33.15 17.0396 33.2233 16.7996 33.37C16.5662 33.5167 16.3862 33.7167 16.2596 33.97C16.1329 34.2167 16.0696 34.5033 16.0696 34.83C16.0696 35.15 16.1329 35.4367 16.2596 35.69C16.3929 35.9367 16.5729 36.1333 16.7996 36.28C17.0329 36.4267 17.2996 36.5 17.5996 36.5C17.7662 36.5 17.9096 36.49 18.0296 36.47C18.1496 36.45 18.2496 36.42 18.3296 36.38C18.4229 36.3267 18.5062 36.27 18.5796 36.21C18.6529 36.15 18.7629 36.12 18.9096 36.12C19.0829 36.12 19.2162 36.1767 19.3096 36.29C19.4029 36.3967 19.4496 36.53 19.4496 36.69C19.4496 36.8567 19.3562 37.01 19.1696 37.15C18.9829 37.2833 18.7362 37.3933 18.4296 37.48C18.1296 37.56 17.8029 37.6 17.4496 37.6C16.9229 37.6 16.4662 37.48 16.0796 37.24C15.6929 36.9933 15.3929 36.66 15.1796 36.24C14.9729 35.82 14.8696 35.35 14.8696 34.83C14.8696 34.2833 14.9796 33.8033 15.1996 33.39C15.4262 32.97 15.7362 32.6433 16.1296 32.41C16.5296 32.17 16.9862 32.05 17.4996 32.05ZM25.2637 34.83C25.2637 35.3767 25.1404 35.86 24.8937 36.28C24.6537 36.6933 24.327 37.0167 23.9137 37.25C23.507 37.4833 23.0504 37.6 22.5437 37.6C22.037 37.6 21.577 37.4833 21.1637 37.25C20.757 37.0167 20.4304 36.6933 20.1837 36.28C19.9437 35.86 19.8237 35.3767 19.8237 34.83C19.8237 34.2833 19.9437 33.8033 20.1837 33.39C20.4304 32.97 20.757 32.6433 21.1637 32.41C21.577 32.17 22.037 32.05 22.5437 32.05C23.0504 32.05 23.507 32.17 23.9137 32.41C24.327 32.6433 24.6537 32.97 24.8937 33.39C25.1404 33.8033 25.2637 34.2833 25.2637 34.83ZM24.0637 34.83C24.0637 34.49 23.9937 34.1967 23.8537 33.95C23.7204 33.6967 23.537 33.5 23.3037 33.36C23.077 33.22 22.8237 33.15 22.5437 33.15C22.2637 33.15 22.007 33.22 21.7737 33.36C21.547 33.5 21.3637 33.6967 21.2237 33.95C21.0904 34.1967 21.0237 34.49 21.0237 34.83C21.0237 35.1633 21.0904 35.4567 21.2237 35.71C21.3637 35.9567 21.547 36.15 21.7737 36.29C22.007 36.43 22.2637 36.5 22.5437 36.5C22.8237 36.5 23.077 36.43 23.3037 36.29C23.537 36.15 23.7204 35.9567 23.8537 35.71C23.9937 35.4567 24.0637 35.1633 24.0637 34.83ZM30.0428 32.15C30.2161 32.15 30.3594 32.21 30.4728 32.33C30.5861 32.4433 30.6428 32.5867 30.6428 32.76V35.3C30.6428 36.0067 30.4461 36.5667 30.0528 36.98C29.6594 37.3933 29.0928 37.6 28.3528 37.6C27.6128 37.6 27.0461 37.3933 26.6528 36.98C26.2661 36.5667 26.0728 36.0067 26.0728 35.3V32.76C26.0728 32.5867 26.1294 32.4433 26.2428 32.33C26.3561 32.21 26.4994 32.15 26.6728 32.15C26.8461 32.15 26.9894 32.21 27.1028 32.33C27.2161 32.4433 27.2728 32.5867 27.2728 32.76V35.3C27.2728 35.7067 27.3628 36.01 27.5428 36.21C27.7228 36.4033 27.9928 36.5 28.3528 36.5C28.7194 36.5 28.9928 36.4033 29.1728 36.21C29.3528 36.01 29.4428 35.7067 29.4428 35.3V32.76C29.4428 32.5867 29.4994 32.4433 29.6128 32.33C29.7261 32.21 29.8694 32.15 30.0428 32.15ZM34.5607 32.05C35.054 32.05 35.4274 32.1533 35.6807 32.36C35.9407 32.5667 36.1174 32.8433 36.2107 33.19C36.3107 33.53 36.3607 33.91 36.3607 34.33V36.89C36.3607 37.0633 36.304 37.21 36.1907 37.33C36.0774 37.4433 35.934 37.5 35.7607 37.5C35.5874 37.5 35.444 37.4433 35.3307 37.33C35.2174 37.21 35.1607 37.0633 35.1607 36.89V34.33C35.1607 34.11 35.1307 33.9133 35.0707 33.74C35.0174 33.56 34.9174 33.4167 34.7707 33.31C34.624 33.2033 34.414 33.15 34.1407 33.15C33.874 33.15 33.6474 33.2033 33.4607 33.31C33.2807 33.4167 33.1407 33.56 33.0407 33.74C32.9474 33.9133 32.9007 34.11 32.9007 34.33V36.89C32.9007 37.0633 32.844 37.21 32.7307 37.33C32.6174 37.4433 32.474 37.5 32.3007 37.5C32.1274 37.5 31.984 37.4433 31.8707 37.33C31.7574 37.21 31.7007 37.0633 31.7007 36.89V32.76C31.7007 32.5867 31.7574 32.4433 31.8707 32.33C31.984 32.21 32.1274 32.15 32.3007 32.15C32.474 32.15 32.6174 32.21 32.7307 32.33C32.844 32.4433 32.9007 32.5867 32.9007 32.76V33.19L32.7507 33.16C32.8107 33.0467 32.8974 32.9267 33.0107 32.8C33.124 32.6667 33.2574 32.5433 33.4107 32.43C33.564 32.3167 33.7374 32.2267 33.9307 32.16C34.124 32.0867 34.334 32.05 34.5607 32.05ZM37.4766 32.25H39.8466C40.0066 32.25 40.1399 32.3033 40.2466 32.41C40.3532 32.5167 40.4066 32.65 40.4066 32.81C40.4066 32.9633 40.3532 33.0933 40.2466 33.2C40.1399 33.3 40.0066 33.35 39.8466 33.35H37.4766C37.3166 33.35 37.1832 33.2967 37.0766 33.19C36.9699 33.0833 36.9166 32.95 36.9166 32.79C36.9166 32.6367 36.9699 32.51 37.0766 32.41C37.1832 32.3033 37.3166 32.25 37.4766 32.25ZM38.5466 31C38.7199 31 38.8599 31.06 38.9666 31.18C39.0799 31.2933 39.1366 31.4367 39.1366 31.61V36.06C39.1366 36.1533 39.1532 36.23 39.1866 36.29C39.2266 36.35 39.2766 36.3933 39.3366 36.42C39.4032 36.4467 39.4732 36.46 39.5466 36.46C39.6266 36.46 39.6999 36.4467 39.7666 36.42C39.8332 36.3867 39.9099 36.37 39.9966 36.37C40.0899 36.37 40.1732 36.4133 40.2466 36.5C40.3266 36.5867 40.3666 36.7067 40.3666 36.86C40.3666 37.0467 40.2632 37.2 40.0566 37.32C39.8566 37.44 39.6399 37.5 39.4066 37.5C39.2666 37.5 39.1099 37.49 38.9366 37.47C38.7699 37.4433 38.6099 37.3867 38.4566 37.3C38.3099 37.2067 38.1866 37.0667 38.0866 36.88C37.9866 36.6933 37.9366 36.4367 37.9366 36.11V31.61C37.9366 31.4367 37.9932 31.2933 38.1066 31.18C38.2266 31.06 38.3732 31 38.5466 31Z" fill="#CBFB5E"/>
<path fill-rule="evenodd" clip-rule="evenodd" d="M28.5925 19.5112C26.3374 18.0869 23.6842 17.3814 21 17.4923C18.3158 17.3814 15.6626 18.0869 13.4075 19.5112C13.0733 19.7396 12.8745 20.1128 12.875 20.5109V23.588H29.125V20.5109C29.1255 20.1128 28.9267 19.7396 28.5925 19.5112Z" stroke="#CBFB5E" stroke-width="2.5" stroke-linecap="round" stroke-linejoin="round"/>
<path fill-rule="evenodd" clip-rule="evenodd" d="M25.375 9.56776C25.375 7.21117 23.4162 5.30078 21 5.30078C18.5838 5.30078 16.625 7.21117 16.625 9.56776C16.625 11.9243 18.5838 13.8347 21 13.8347C23.4162 13.8347 25.375 11.9243 25.375 9.56776Z" stroke="#CBFB5E" stroke-width="2.5" stroke-linecap="round" stroke-linejoin="round"/>
</svg>
