<svg width="45" height="39" viewBox="0 0 45 39" fill="none" xmlns="http://www.w3.org/2000/svg">
<path d="M2.41795 34.325C2.23128 34.325 2.07795 34.2683 1.95795 34.155C1.84462 34.035 1.78795 33.8883 1.78795 33.715V27.935C1.78795 27.7616 1.84462 27.6183 1.95795 27.505C2.07795 27.385 2.22462 27.325 2.39795 27.325H5.64795C5.82128 27.325 5.96462 27.3816 6.07795 27.495C6.19795 27.6016 6.25795 27.7416 6.25795 27.915C6.25795 28.0616 6.19795 28.1916 6.07795 28.305C5.96462 28.4183 5.82128 28.475 5.64795 28.475H2.94795L3.03795 28.355V30.365L2.96795 30.235H5.19795C5.37128 30.235 5.51462 30.2916 5.62795 30.405C5.74795 30.5116 5.80795 30.6516 5.80795 30.825C5.80795 30.9716 5.74795 31.1016 5.62795 31.215C5.51462 31.3283 5.37128 31.385 5.19795 31.385H2.94795L3.03795 31.295V33.715C3.03795 33.8883 2.97462 34.035 2.84795 34.155C2.72795 34.2683 2.58462 34.325 2.41795 34.325ZM11.2467 28.875C11.42 28.875 11.5634 28.9316 11.6767 29.045C11.79 29.1583 11.8467 29.305 11.8467 29.485V33.715C11.8467 33.8883 11.79 34.035 11.6767 34.155C11.5634 34.2683 11.42 34.325 11.2467 34.325C11.0734 34.325 10.93 34.2683 10.8167 34.155C10.7034 34.035 10.6467 33.8883 10.6467 33.715V33.225L10.8667 33.315C10.8667 33.4016 10.82 33.5083 10.7267 33.635C10.6334 33.755 10.5067 33.875 10.3467 33.995C10.1867 34.115 9.99669 34.2183 9.77669 34.305C9.56336 34.385 9.33003 34.425 9.07669 34.425C8.61669 34.425 8.20003 34.3083 7.82669 34.075C7.45336 33.835 7.15669 33.5083 6.93669 33.095C6.72336 32.675 6.61669 32.195 6.61669 31.655C6.61669 31.1083 6.72336 30.6283 6.93669 30.215C7.15669 29.795 7.45003 29.4683 7.81669 29.235C8.18336 28.995 8.59003 28.875 9.03669 28.875C9.32336 28.875 9.58669 28.9183 9.82669 29.005C10.0667 29.0916 10.2734 29.2016 10.4467 29.335C10.6267 29.4683 10.7634 29.605 10.8567 29.745C10.9567 29.8783 11.0067 29.9916 11.0067 30.085L10.6467 30.215V29.485C10.6467 29.3116 10.7034 29.1683 10.8167 29.055C10.93 28.935 11.0734 28.875 11.2467 28.875ZM9.22669 33.325C9.52003 33.325 9.77669 33.2516 9.99669 33.105C10.2167 32.9583 10.3867 32.7583 10.5067 32.505C10.6334 32.2516 10.6967 31.9683 10.6967 31.655C10.6967 31.335 10.6334 31.0483 10.5067 30.795C10.3867 30.5416 10.2167 30.3416 9.99669 30.195C9.77669 30.0483 9.52003 29.975 9.22669 29.975C8.94003 29.975 8.68669 30.0483 8.46669 30.195C8.24669 30.3416 8.07336 30.5416 7.94669 30.795C7.82669 31.0483 7.76669 31.335 7.76669 31.655C7.76669 31.9683 7.82669 32.2516 7.94669 32.505C8.07336 32.7583 8.24669 32.9583 8.46669 33.105C8.68669 33.2516 8.94003 33.325 9.22669 33.325ZM13.0276 28.975C13.1543 28.975 13.271 29.0083 13.3776 29.075C13.4843 29.135 13.5643 29.2283 13.6176 29.355L15.0876 32.715L14.8676 32.815L16.3676 29.365C16.481 29.0983 16.6576 28.9716 16.8976 28.985C17.0643 28.985 17.1976 29.0383 17.2976 29.145C17.4043 29.245 17.4576 29.3716 17.4576 29.525C17.4576 29.5716 17.4476 29.6216 17.4276 29.675C17.4143 29.7283 17.3976 29.7783 17.3776 29.825L15.5076 33.945C15.401 34.185 15.231 34.3116 14.9976 34.325C14.871 34.345 14.7476 34.3216 14.6276 34.255C14.5143 34.1883 14.4276 34.085 14.3676 33.945L12.5076 29.825C12.4943 29.7916 12.4776 29.7483 12.4576 29.695C12.4443 29.6416 12.4376 29.5783 12.4376 29.505C12.4376 29.385 12.491 29.2683 12.5976 29.155C12.7043 29.035 12.8476 28.975 13.0276 28.975ZM23.3029 31.655C23.3029 32.2016 23.1795 32.685 22.9329 33.105C22.6929 33.5183 22.3662 33.8416 21.9529 34.075C21.5462 34.3083 21.0895 34.425 20.5829 34.425C20.0762 34.425 19.6162 34.3083 19.2029 34.075C18.7962 33.8416 18.4695 33.5183 18.2229 33.105C17.9829 32.685 17.8629 32.2016 17.8629 31.655C17.8629 31.1083 17.9829 30.6283 18.2229 30.215C18.4695 29.795 18.7962 29.4683 19.2029 29.235C19.6162 28.995 20.0762 28.875 20.5829 28.875C21.0895 28.875 21.5462 28.995 21.9529 29.235C22.3662 29.4683 22.6929 29.795 22.9329 30.215C23.1795 30.6283 23.3029 31.1083 23.3029 31.655ZM22.1029 31.655C22.1029 31.315 22.0329 31.0216 21.8929 30.775C21.7595 30.5216 21.5762 30.325 21.3429 30.185C21.1162 30.045 20.8629 29.975 20.5829 29.975C20.3029 29.975 20.0462 30.045 19.8129 30.185C19.5862 30.325 19.4029 30.5216 19.2629 30.775C19.1295 31.0216 19.0629 31.315 19.0629 31.655C19.0629 31.9883 19.1295 32.2816 19.2629 32.535C19.4029 32.7816 19.5862 32.975 19.8129 33.115C20.0462 33.255 20.3029 33.325 20.5829 33.325C20.8629 33.325 21.1162 33.255 21.3429 33.115C21.5762 32.975 21.7595 32.7816 21.8929 32.535C22.0329 32.2816 22.1029 31.9883 22.1029 31.655ZM24.7119 34.325C24.5386 34.325 24.3952 34.2683 24.2819 34.155C24.1686 34.035 24.1119 33.8883 24.1119 33.715V29.585C24.1119 29.4116 24.1686 29.2683 24.2819 29.155C24.3952 29.035 24.5386 28.975 24.7119 28.975C24.8852 28.975 25.0286 29.035 25.1419 29.155C25.2552 29.2683 25.3119 29.4116 25.3119 29.585V30.525L25.2419 29.855C25.3152 29.695 25.4086 29.555 25.5219 29.435C25.6419 29.3083 25.7752 29.205 25.9219 29.125C26.0686 29.0383 26.2252 28.975 26.3919 28.935C26.5586 28.895 26.7252 28.875 26.8919 28.875C27.0919 28.875 27.2586 28.9316 27.3919 29.045C27.5319 29.1583 27.6019 29.2916 27.6019 29.445C27.6019 29.665 27.5452 29.825 27.4319 29.925C27.3186 30.0183 27.1952 30.065 27.0619 30.065C26.9352 30.065 26.8186 30.0416 26.7119 29.995C26.6119 29.9483 26.4952 29.925 26.3619 29.925C26.2419 29.925 26.1186 29.955 25.9919 30.015C25.8719 30.0683 25.7586 30.155 25.6519 30.275C25.5519 30.395 25.4686 30.545 25.4019 30.725C25.3419 30.8983 25.3119 31.105 25.3119 31.345V33.715C25.3119 33.8883 25.2552 34.035 25.1419 34.155C25.0286 34.2683 24.8852 34.325 24.7119 34.325ZM29.3367 33.715C29.3367 33.8883 29.28 34.035 29.1667 34.155C29.0533 34.2683 28.91 34.325 28.7367 34.325C28.5633 34.325 28.42 34.2683 28.3067 34.155C28.1933 34.035 28.1367 33.8883 28.1367 33.715V29.585C28.1367 29.4116 28.1933 29.2683 28.3067 29.155C28.42 29.035 28.5633 28.975 28.7367 28.975C28.91 28.975 29.0533 29.035 29.1667 29.155C29.28 29.2683 29.3367 29.4116 29.3367 29.585V33.715ZM28.7267 28.325C28.5 28.325 28.34 28.2883 28.2467 28.215C28.1533 28.1416 28.1067 28.0116 28.1067 27.825V27.635C28.1067 27.4416 28.1567 27.3116 28.2567 27.245C28.3633 27.1716 28.5233 27.135 28.7367 27.135C28.97 27.135 29.1333 27.1716 29.2267 27.245C29.32 27.3183 29.3667 27.4483 29.3667 27.635V27.825C29.3667 28.0183 29.3167 28.1516 29.2167 28.225C29.1167 28.2916 28.9533 28.325 28.7267 28.325ZM30.3888 29.075H32.7588C32.9188 29.075 33.0521 29.1283 33.1588 29.235C33.2654 29.3416 33.3188 29.475 33.3188 29.635C33.3188 29.7883 33.2654 29.9183 33.1588 30.025C33.0521 30.125 32.9188 30.175 32.7588 30.175H30.3888C30.2288 30.175 30.0954 30.1216 29.9888 30.015C29.8821 29.9083 29.8288 29.775 29.8288 29.615C29.8288 29.4616 29.8821 29.335 29.9888 29.235C30.0954 29.1283 30.2288 29.075 30.3888 29.075ZM31.4588 27.825C31.6321 27.825 31.7721 27.885 31.8788 28.005C31.9921 28.1183 32.0488 28.2616 32.0488 28.435V32.885C32.0488 32.9783 32.0654 33.055 32.0988 33.115C32.1388 33.175 32.1888 33.2183 32.2488 33.245C32.3154 33.2716 32.3854 33.285 32.4588 33.285C32.5388 33.285 32.6121 33.2716 32.6788 33.245C32.7454 33.2116 32.8221 33.195 32.9088 33.195C33.0021 33.195 33.0854 33.2383 33.1588 33.325C33.2388 33.4116 33.2788 33.5316 33.2788 33.685C33.2788 33.8716 33.1754 34.025 32.9688 34.145C32.7688 34.265 32.5521 34.325 32.3188 34.325C32.1788 34.325 32.0221 34.315 31.8488 34.295C31.6821 34.2683 31.5221 34.2116 31.3688 34.125C31.2221 34.0316 31.0988 33.8916 30.9988 33.705C30.8988 33.5183 30.8488 33.2616 30.8488 32.935V28.435C30.8488 28.2616 30.9054 28.1183 31.0188 28.005C31.1388 27.885 31.2854 27.825 31.4588 27.825ZM36.6506 34.425C36.0839 34.425 35.5906 34.3083 35.1706 34.075C34.7572 33.835 34.4372 33.5116 34.2106 33.105C33.9906 32.6983 33.8806 32.2383 33.8806 31.725C33.8806 31.125 34.0006 30.615 34.2406 30.195C34.4872 29.7683 34.8072 29.4416 35.2006 29.215C35.5939 28.9883 36.0106 28.875 36.4506 28.875C36.7906 28.875 37.1106 28.945 37.4106 29.085C37.7172 29.225 37.9872 29.4183 38.2206 29.665C38.4539 29.905 38.6372 30.185 38.7706 30.505C38.9106 30.825 38.9806 31.165 38.9806 31.525C38.9739 31.685 38.9106 31.815 38.7906 31.915C38.6706 32.015 38.5306 32.065 38.3706 32.065H34.5506L34.2506 31.065H37.9206L37.7006 31.265V30.995C37.6872 30.8016 37.6172 30.6283 37.4906 30.475C37.3706 30.3216 37.2172 30.2016 37.0306 30.115C36.8506 30.0216 36.6572 29.975 36.4506 29.975C36.2506 29.975 36.0639 30.0016 35.8906 30.055C35.7172 30.1083 35.5672 30.1983 35.4406 30.325C35.3139 30.4516 35.2139 30.6216 35.1406 30.835C35.0672 31.0483 35.0306 31.3183 35.0306 31.645C35.0306 32.005 35.1039 32.3116 35.2506 32.565C35.4039 32.8116 35.5972 33.0016 35.8306 33.135C36.0706 33.2616 36.3239 33.325 36.5906 33.325C36.8372 33.325 37.0339 33.305 37.1806 33.265C37.3272 33.225 37.4439 33.1783 37.5306 33.125C37.6239 33.065 37.7072 33.015 37.7806 32.975C37.9006 32.915 38.0139 32.885 38.1206 32.885C38.2672 32.885 38.3872 32.935 38.4806 33.035C38.5806 33.135 38.6306 33.2516 38.6306 33.385C38.6306 33.565 38.5372 33.7283 38.3506 33.875C38.1772 34.0216 37.9339 34.1516 37.6206 34.265C37.3072 34.3716 36.9839 34.425 36.6506 34.425ZM39.4778 33.495C39.4112 33.4016 39.3812 33.2816 39.3878 33.135C39.3945 32.9883 39.4812 32.8616 39.6478 32.755C39.7545 32.6883 39.8678 32.6616 39.9878 32.675C40.1078 32.6816 40.2245 32.7416 40.3378 32.855C40.5312 33.0483 40.7345 33.1983 40.9478 33.305C41.1612 33.4116 41.4278 33.465 41.7478 33.465C41.8478 33.4583 41.9578 33.445 42.0778 33.425C42.1978 33.3983 42.3012 33.345 42.3878 33.265C42.4812 33.1783 42.5278 33.0483 42.5278 32.875C42.5278 32.7283 42.4778 32.6116 42.3778 32.525C42.2778 32.4383 42.1445 32.365 41.9778 32.305C41.8178 32.245 41.6378 32.1883 41.4378 32.135C41.2312 32.075 41.0178 32.0083 40.7978 31.935C40.5845 31.8616 40.3878 31.7683 40.2078 31.655C40.0278 31.535 39.8812 31.3783 39.7678 31.185C39.6545 30.9916 39.5978 30.7483 39.5978 30.455C39.5978 30.1216 39.6912 29.8383 39.8778 29.605C40.0645 29.3716 40.3045 29.1916 40.5978 29.065C40.8978 28.9383 41.2112 28.875 41.5378 28.875C41.7445 28.875 41.9612 28.9016 42.1878 28.955C42.4145 29.0016 42.6312 29.0816 42.8378 29.195C43.0445 29.3016 43.2178 29.445 43.3578 29.625C43.4312 29.725 43.4745 29.845 43.4878 29.985C43.5012 30.125 43.4378 30.2516 43.2978 30.365C43.1978 30.445 43.0812 30.4816 42.9478 30.475C42.8145 30.4616 42.7045 30.415 42.6178 30.335C42.5045 30.1883 42.3512 30.0716 42.1578 29.985C41.9712 29.8983 41.7545 29.855 41.5078 29.855C41.4078 29.855 41.2978 29.8683 41.1778 29.895C41.0645 29.915 40.9645 29.965 40.8778 30.045C40.7912 30.1183 40.7478 30.2383 40.7478 30.405C40.7478 30.5583 40.7978 30.6816 40.8978 30.775C40.9978 30.8616 41.1312 30.935 41.2978 30.995C41.4712 31.0483 41.6545 31.1016 41.8478 31.155C42.0478 31.2083 42.2512 31.2716 42.4578 31.345C42.6645 31.4183 42.8545 31.515 43.0278 31.635C43.2012 31.755 43.3412 31.9116 43.4478 32.105C43.5545 32.2916 43.6078 32.5316 43.6078 32.825C43.6078 33.165 43.5078 33.455 43.3078 33.695C43.1078 33.935 42.8578 34.1183 42.5578 34.245C42.2578 34.365 41.9512 34.425 41.6378 34.425C41.2445 34.425 40.8512 34.3583 40.4578 34.225C40.0645 34.085 39.7378 33.8416 39.4778 33.495Z" fill="#71737B"/>
<path fill-rule="evenodd" clip-rule="evenodd" d="M23.1001 2.56025C21.7648 0.99225 19.7191 0 17.5876 0C13.8146 0 10.8501 2.9645 10.8501 6.7375C10.8501 11.368 15.0151 15.141 21.3238 20.874L23.1001 22.4788L24.8763 20.8618C31.1851 15.141 35.3501 11.368 35.3501 6.7375C35.3501 2.9645 32.3856 0 28.6126 0C26.4811 0 24.4353 0.99225 23.1001 2.56025ZM23.1001 19.1716L22.9776 19.0491C17.1466 13.7694 13.3001 10.2781 13.3001 6.73787C13.3001 4.28787 15.1376 2.45037 17.5876 2.45037C19.4741 2.45037 21.3116 3.66312 21.9608 5.34137H24.2516C24.8886 3.66312 26.7261 2.45037 28.6126 2.45037C31.0626 2.45037 32.9001 4.28787 32.9001 6.73787C32.9001 10.2781 29.0536 13.7694 23.2226 19.0491L23.1001 19.1716Z" fill="#71737B"/>
</svg>
