<svg width="24" height="25" viewBox="0 0 24 25" fill="none" xmlns="http://www.w3.org/2000/svg">
<g id="Outlined / Action / highlight_off">
<path id="&#240;&#159;&#148;&#185; Icon Color" fill-rule="evenodd" clip-rule="evenodd" d="M12 10.5924L9.41 8.00244L8 9.41244L10.59 12.0024L8 14.5924L9.41 16.0024L12 13.4124L14.59 16.0024L16 14.5924L13.41 12.0024L16 9.41244L14.59 8.00244L12 10.5924ZM2 12.0024C2 17.5324 6.47 22.0024 12 22.0024C17.53 22.0024 22 17.5324 22 12.0024C22 6.47244 17.53 2.00244 12 2.00244C6.47 2.00244 2 6.47244 2 12.0024ZM4 12.0024C4 7.59244 7.59 4.00244 12 4.00244C16.41 4.00244 20 7.59244 20 12.0024C20 16.4124 16.41 20.0024 12 20.0024C7.59 20.0024 4 16.4124 4 12.0024Z" fill="#EEEEEE"/>
</g>
</svg>
