<svg width="36" height="37" viewBox="0 0 36 37" fill="none" xmlns="http://www.w3.org/2000/svg">
<path d="M2.0579 26.5H5.4079C5.58123 26.5 5.72456 26.5567 5.8379 26.67C5.9579 26.7767 6.0179 26.9167 6.0179 27.09C6.0179 27.2567 5.9579 27.3933 5.8379 27.5C5.72456 27.6 5.58123 27.65 5.4079 27.65H2.6079L2.6979 27.48V29.43L2.6179 29.35H4.9579C5.13123 29.35 5.27456 29.4067 5.3879 29.52C5.5079 29.6267 5.5679 29.7667 5.5679 29.94C5.5679 30.1067 5.5079 30.2433 5.3879 30.35C5.27456 30.45 5.13123 30.5 4.9579 30.5H2.6479L2.6979 30.42V32.44L2.6179 32.35H5.4079C5.58123 32.35 5.72456 32.41 5.8379 32.53C5.9579 32.6433 6.0179 32.7767 6.0179 32.93C6.0179 33.0967 5.9579 33.2333 5.8379 33.34C5.72456 33.4467 5.58123 33.5 5.4079 33.5H2.0579C1.88456 33.5 1.7379 33.4433 1.6179 33.33C1.50456 33.21 1.4479 33.0633 1.4479 32.89V27.11C1.4479 26.9367 1.50456 26.7933 1.6179 26.68C1.7379 26.56 1.88456 26.5 2.0579 26.5ZM6.93937 28.15C7.13271 28.15 7.29604 28.2333 7.42937 28.4L10.7694 32.55C10.856 32.6567 10.8994 32.7767 10.8994 32.91C10.8994 33.0767 10.836 33.22 10.7094 33.34C10.5827 33.46 10.4427 33.52 10.2894 33.52C10.096 33.52 9.93271 33.4333 9.79937 33.26L6.45937 29.11C6.37271 29.0033 6.32937 28.8833 6.32937 28.75C6.32937 28.5767 6.38937 28.4333 6.50937 28.32C6.63604 28.2067 6.77937 28.15 6.93937 28.15ZM6.94937 33.51C6.81604 33.51 6.68271 33.46 6.54937 33.36C6.42271 33.2533 6.35937 33.1267 6.35937 32.98C6.35937 32.8467 6.40937 32.72 6.50937 32.6L8.03937 30.73L8.63937 31.73L7.42937 33.26C7.30271 33.4267 7.14271 33.51 6.94937 33.51ZM10.2794 28.15C10.4394 28.15 10.5727 28.2067 10.6794 28.32C10.7927 28.4267 10.8494 28.55 10.8494 28.69C10.8494 28.7567 10.8394 28.8233 10.8194 28.89C10.7994 28.9567 10.7627 29.02 10.7094 29.08L9.19937 30.92L8.56937 30.05L9.79937 28.42C9.93271 28.24 10.0927 28.15 10.2794 28.15ZM14.2312 28.05C14.6979 28.05 15.1146 28.17 15.4812 28.41C15.8546 28.6433 16.1479 28.9667 16.3612 29.38C16.5812 29.7933 16.6912 30.2733 16.6912 30.82C16.6912 31.3667 16.5812 31.85 16.3612 32.27C16.1479 32.6833 15.8579 33.01 15.4912 33.25C15.1312 33.4833 14.7246 33.6 14.2712 33.6C14.0046 33.6 13.7546 33.5567 13.5212 33.47C13.2879 33.3833 13.0812 33.2733 12.9012 33.14C12.7279 33.0067 12.5912 32.8733 12.4912 32.74C12.3979 32.6 12.3512 32.4833 12.3512 32.39L12.6612 32.26V34.89C12.6612 35.0633 12.6046 35.2067 12.4912 35.32C12.3779 35.44 12.2346 35.5 12.0612 35.5C11.8879 35.5 11.7446 35.4433 11.6312 35.33C11.5179 35.2167 11.4612 35.07 11.4612 34.89V28.76C11.4612 28.5867 11.5179 28.4433 11.6312 28.33C11.7446 28.21 11.8879 28.15 12.0612 28.15C12.2346 28.15 12.3779 28.21 12.4912 28.33C12.6046 28.4433 12.6612 28.5867 12.6612 28.76V29.25L12.4912 29.16C12.4912 29.0733 12.5379 28.97 12.6312 28.85C12.7246 28.7233 12.8512 28.6 13.0112 28.48C13.1712 28.3533 13.3546 28.25 13.5612 28.17C13.7746 28.09 13.9979 28.05 14.2312 28.05ZM14.0812 29.15C13.7879 29.15 13.5312 29.2233 13.3112 29.37C13.0912 29.5167 12.9179 29.7167 12.7912 29.97C12.6712 30.2167 12.6112 30.5 12.6112 30.82C12.6112 31.1333 12.6712 31.42 12.7912 31.68C12.9179 31.9333 13.0912 32.1333 13.3112 32.28C13.5312 32.4267 13.7879 32.5 14.0812 32.5C14.3746 32.5 14.6279 32.4267 14.8412 32.28C15.0612 32.1333 15.2312 31.9333 15.3512 31.68C15.4779 31.42 15.5412 31.1333 15.5412 30.82C15.5412 30.5 15.4779 30.2167 15.3512 29.97C15.2312 29.7167 15.0612 29.5167 14.8412 29.37C14.6279 29.2233 14.3746 29.15 14.0812 29.15ZM18.7994 32.89C18.7994 33.0633 18.7394 33.21 18.6194 33.33C18.506 33.4433 18.3627 33.5 18.1894 33.5C18.0227 33.5 17.8827 33.4433 17.7694 33.33C17.656 33.21 17.5994 33.0633 17.5994 32.89V26.71C17.5994 26.5367 17.656 26.3933 17.7694 26.28C17.8894 26.16 18.036 26.1 18.2094 26.1C18.3827 26.1 18.5227 26.16 18.6294 26.28C18.7427 26.3933 18.7994 26.5367 18.7994 26.71V32.89ZM25.0458 30.83C25.0458 31.3767 24.9225 31.86 24.6758 32.28C24.4358 32.6933 24.1092 33.0167 23.6958 33.25C23.2892 33.4833 22.8325 33.6 22.3258 33.6C21.8192 33.6 21.3592 33.4833 20.9458 33.25C20.5392 33.0167 20.2125 32.6933 19.9658 32.28C19.7258 31.86 19.6058 31.3767 19.6058 30.83C19.6058 30.2833 19.7258 29.8033 19.9658 29.39C20.2125 28.97 20.5392 28.6433 20.9458 28.41C21.3592 28.17 21.8192 28.05 22.3258 28.05C22.8325 28.05 23.2892 28.17 23.6958 28.41C24.1092 28.6433 24.4358 28.97 24.6758 29.39C24.9225 29.8033 25.0458 30.2833 25.0458 30.83ZM23.8458 30.83C23.8458 30.49 23.7758 30.1967 23.6358 29.95C23.5025 29.6967 23.3192 29.5 23.0858 29.36C22.8592 29.22 22.6058 29.15 22.3258 29.15C22.0458 29.15 21.7892 29.22 21.5558 29.36C21.3292 29.5 21.1458 29.6967 21.0058 29.95C20.8725 30.1967 20.8058 30.49 20.8058 30.83C20.8058 31.1633 20.8725 31.4567 21.0058 31.71C21.1458 31.9567 21.3292 32.15 21.5558 32.29C21.7892 32.43 22.0458 32.5 22.3258 32.5C22.6058 32.5 22.8592 32.43 23.0858 32.29C23.3192 32.15 23.5025 31.9567 23.6358 31.71C23.7758 31.4567 23.8458 31.1633 23.8458 30.83ZM26.4549 33.5C26.2816 33.5 26.1382 33.4433 26.0249 33.33C25.9116 33.21 25.8549 33.0633 25.8549 32.89V28.76C25.8549 28.5867 25.9116 28.4433 26.0249 28.33C26.1382 28.21 26.2816 28.15 26.4549 28.15C26.6282 28.15 26.7716 28.21 26.8849 28.33C26.9982 28.4433 27.0549 28.5867 27.0549 28.76V29.7L26.9849 29.03C27.0582 28.87 27.1516 28.73 27.2649 28.61C27.3849 28.4833 27.5182 28.38 27.6649 28.3C27.8116 28.2133 27.9682 28.15 28.1349 28.11C28.3016 28.07 28.4682 28.05 28.6349 28.05C28.8349 28.05 29.0016 28.1067 29.1349 28.22C29.2749 28.3333 29.3449 28.4667 29.3449 28.62C29.3449 28.84 29.2882 29 29.1749 29.1C29.0616 29.1933 28.9382 29.24 28.8049 29.24C28.6782 29.24 28.5616 29.2167 28.4549 29.17C28.3549 29.1233 28.2382 29.1 28.1049 29.1C27.9849 29.1 27.8616 29.13 27.7349 29.19C27.6149 29.2433 27.5016 29.33 27.3949 29.45C27.2949 29.57 27.2116 29.72 27.1449 29.9C27.0849 30.0733 27.0549 30.28 27.0549 30.52V32.89C27.0549 33.0633 26.9982 33.21 26.8849 33.33C26.7716 33.4433 26.6282 33.5 26.4549 33.5ZM32.2451 33.6C31.6784 33.6 31.1851 33.4833 30.7651 33.25C30.3517 33.01 30.0317 32.6867 29.8051 32.28C29.5851 31.8733 29.4751 31.4133 29.4751 30.9C29.4751 30.3 29.5951 29.79 29.8351 29.37C30.0817 28.9433 30.4017 28.6167 30.7951 28.39C31.1884 28.1633 31.6051 28.05 32.0451 28.05C32.3851 28.05 32.7051 28.12 33.0051 28.26C33.3117 28.4 33.5817 28.5933 33.8151 28.84C34.0484 29.08 34.2317 29.36 34.3651 29.68C34.5051 30 34.5751 30.34 34.5751 30.7C34.5684 30.86 34.5051 30.99 34.3851 31.09C34.2651 31.19 34.1251 31.24 33.9651 31.24H30.1451L29.8451 30.24H33.5151L33.2951 30.44V30.17C33.2817 29.9767 33.2117 29.8033 33.0851 29.65C32.9651 29.4967 32.8117 29.3767 32.6251 29.29C32.4451 29.1967 32.2517 29.15 32.0451 29.15C31.8451 29.15 31.6584 29.1767 31.4851 29.23C31.3117 29.2833 31.1617 29.3733 31.0351 29.5C30.9084 29.6267 30.8084 29.7967 30.7351 30.01C30.6617 30.2233 30.6251 30.4933 30.6251 30.82C30.6251 31.18 30.6984 31.4867 30.8451 31.74C30.9984 31.9867 31.1917 32.1767 31.4251 32.31C31.6651 32.4367 31.9184 32.5 32.1851 32.5C32.4317 32.5 32.6284 32.48 32.7751 32.44C32.9217 32.4 33.0384 32.3533 33.1251 32.3C33.2184 32.24 33.3017 32.19 33.3751 32.15C33.4951 32.09 33.6084 32.06 33.7151 32.06C33.8617 32.06 33.9817 32.11 34.0751 32.21C34.1751 32.31 34.2251 32.4267 34.2251 32.56C34.2251 32.74 34.1317 32.9033 33.9451 33.05C33.7717 33.1967 33.5284 33.3267 33.2151 33.44C32.9017 33.5467 32.5784 33.6 32.2451 33.6Z" fill="#71737B"/>
<path fill-rule="evenodd" clip-rule="evenodd" d="M17.9102 19.6281C17.9102 19.6281 11.0352 13.5324 11.0352 8.04631C11.0352 4.34311 14.1132 1.34106 17.9102 1.34106C21.7071 1.34106 24.7852 4.34311 24.7852 8.04631C24.7852 13.5324 17.9102 19.6281 17.9102 19.6281Z" stroke="#71737B" stroke-width="2.5" stroke-linecap="round" stroke-linejoin="round"/>
<path fill-rule="evenodd" clip-rule="evenodd" d="M21.0352 8.04637C21.0352 6.3631 19.6361 4.99854 17.9102 4.99854C16.1843 4.99854 14.7852 6.3631 14.7852 8.04637C14.7852 9.72965 16.1843 11.0942 17.9102 11.0942C19.6361 11.0942 21.0352 9.72965 21.0352 8.04637Z" stroke="#71737B" stroke-width="2.5" stroke-linecap="round" stroke-linejoin="round"/>
</svg>
