<svg width="24" height="25" viewBox="0 0 24 25" fill="none" xmlns="http://www.w3.org/2000/svg">
<g id="Outlined / Alert / notification_important">
<path id="&#240;&#159;&#148;&#185; Icon Color" fill-rule="evenodd" clip-rule="evenodd" d="M12 23.0025C13.1 23.0025 13.99 22.1125 13.99 21.0125H10.01C10.01 22.1125 10.9 23.0025 12 23.0025ZM17 11.0024V18.0024H7V11.0024C7 8.24244 9.24 6.00244 12 6.00244C14.76 6.00244 17 8.24244 17 11.0024ZM10.5 3.00244V4.17244C7.36 4.85244 5 7.65244 5 11.0024V17.0024L3 19.0024V20.0024H21V19.0024L19 17.0024V11.0024C19 7.65244 16.64 4.85244 13.5 4.17244V3.00244C13.5 2.17244 12.83 1.50244 12 1.50244C11.17 1.50244 10.5 2.17244 10.5 3.00244ZM13 8.00244V12.0024H11V8.00244H13ZM13 14.0024V16.0024H11V14.0024H13Z" fill="#EEEEEE"/>
</g>
</svg>
