<svg width="24" height="25" viewBox="0 0 24 25" fill="none" xmlns="http://www.w3.org/2000/svg">
<g id="Outlined / AV / queue_music">
<path id="&#240;&#159;&#148;&#185; Icon Color" fill-rule="evenodd" clip-rule="evenodd" d="M17 6.00244V14.1824C16.69 14.0724 16.35 14.0024 16 14.0024C14.34 14.0024 13 15.3424 13 17.0024C13 18.6624 14.34 20.0024 16 20.0024C17.66 20.0024 19 18.6624 19 17.0024V8.00244H22V6.00244H17ZM3 6.00244V8.00244H15V6.00244H3ZM3 10.0024V12.0024H15V10.0024H3ZM3 14.0024V16.0024H11V14.0024H3ZM16 16.0024C16.55 16.0024 17 16.4524 17 17.0024C17 17.5524 16.55 18.0024 16 18.0024C15.45 18.0024 15 17.5524 15 17.0024C15 16.4524 15.45 16.0024 16 16.0024Z" fill="#EEEEEE"/>
</g>
</svg>
