<svg width="24" height="25" viewBox="0 0 24 25" fill="none" xmlns="http://www.w3.org/2000/svg">
<g id="Outlined / Action / settings">
<path id="&#240;&#159;&#148;&#185; Icon Color" fill-rule="evenodd" clip-rule="evenodd" d="M19.5 12.0024C19.5 11.6624 19.47 11.3424 19.43 11.0224L21.54 9.37244C21.73 9.22244 21.78 8.95244 21.66 8.73244L19.66 5.27244C19.57 5.11244 19.4 5.02244 19.22 5.02244C19.16 5.02244 19.1 5.03244 19.05 5.05244L16.56 6.05244C16.04 5.65244 15.48 5.32244 14.87 5.07244L14.49 2.42244C14.46 2.18244 14.25 2.00244 14 2.00244H10C9.75002 2.00244 9.54002 2.18244 9.51002 2.42244L9.13002 5.07244C8.52002 5.32244 7.96002 5.66244 7.44002 6.05244L4.95002 5.05244C4.89002 5.03244 4.83002 5.02244 4.77002 5.02244C4.60002 5.02244 4.43002 5.11244 4.34002 5.27244L2.34002 8.73244C2.21002 8.95244 2.27002 9.22244 2.46002 9.37244L4.57002 11.0224C4.53002 11.3424 4.50002 11.6724 4.50002 12.0024C4.50002 12.3324 4.53002 12.6624 4.57002 12.9824L2.46002 14.6324C2.27002 14.7824 2.22002 15.0524 2.34002 15.2724L4.34002 18.7324C4.43002 18.8924 4.60002 18.9824 4.78002 18.9824C4.84002 18.9824 4.90002 18.9724 4.95002 18.9524L7.44002 17.9524C7.96002 18.3524 8.52002 18.6824 9.13002 18.9324L9.51002 21.5824C9.54002 21.8224 9.75002 22.0024 10 22.0024H14C14.25 22.0024 14.46 21.8224 14.49 21.5824L14.87 18.9324C15.48 18.6824 16.04 18.3424 16.56 17.9524L19.05 18.9524C19.11 18.9724 19.17 18.9824 19.23 18.9824C19.4 18.9824 19.57 18.8924 19.66 18.7324L21.66 15.2724C21.78 15.0524 21.73 14.7824 21.54 14.6324L19.43 12.9824C19.47 12.6624 19.5 12.3424 19.5 12.0024ZM17.5 12.0024C17.5 12.2124 17.48 12.4324 17.45 12.7324L17.31 13.8624L18.2 14.5624L19.28 15.4024L18.58 16.6124L17.31 16.1024L16.27 15.6824L15.37 16.3624C14.94 16.6824 14.53 16.9224 14.12 17.0924L13.06 17.5224L12.9 18.6524L12.7 20.0024H11.3L11.11 18.6524L10.95 17.5224L9.89003 17.0924C9.46003 16.9124 9.06003 16.6824 8.66003 16.3824L7.75003 15.6824L6.69003 16.1124L5.42003 16.6224L4.72003 15.4124L5.80003 14.5724L6.69003 13.8724L6.55003 12.7424C6.52003 12.4324 6.50003 12.2024 6.50003 12.0024C6.50003 11.8024 6.52003 11.5724 6.55003 11.2724L6.69003 10.1424L5.80003 9.44244L4.72003 8.60244L5.42003 7.39244L6.69003 7.90244L7.73003 8.32244L8.63003 7.64244C9.06003 7.32244 9.47003 7.08244 9.88003 6.91244L10.94 6.48244L11.1 5.35244L11.3 4.00244H12.69L12.88 5.35244L13.04 6.48244L14.1 6.91244C14.53 7.09244 14.93 7.32244 15.33 7.62244L16.24 8.32244L17.3 7.89244L18.57 7.38244L19.27 8.59244L18.2 9.44244L17.31 10.1424L17.45 11.2724C17.49 11.5824 17.5 11.7924 17.5 12.0024ZM8 12.0024C8 14.2124 9.79 16.0024 12 16.0024C14.21 16.0024 16 14.2124 16 12.0024C16 9.79244 14.21 8.00244 12 8.00244C9.79 8.00244 8 9.79244 8 12.0024ZM10 12.0024C10 10.9024 10.9 10.0024 12 10.0024C13.1 10.0024 14 10.9024 14 12.0024C14 13.1024 13.1 14.0024 12 14.0024C10.9 14.0024 10 13.1024 10 12.0024Z" fill="#EEEEEE"/>
</g>
</svg>
