<svg width="40" height="36" viewBox="0 0 40 36" fill="none" xmlns="http://www.w3.org/2000/svg">
<path d="M7.4793 27.4487C7.6393 27.4487 7.7793 27.5087 7.8993 27.6287C8.02597 27.7421 8.0893 27.8854 8.0893 28.0587V33.8387C8.0893 34.0121 8.02597 34.1587 7.8993 34.2787C7.77264 34.3921 7.62597 34.4487 7.4593 34.4487C7.27264 34.4487 7.12264 34.3921 7.0093 34.2787C6.89597 34.1587 6.8393 34.0121 6.8393 33.8387V28.0587C6.8393 27.8854 6.8993 27.7421 7.0193 27.6287C7.1393 27.5087 7.29264 27.4487 7.4793 27.4487ZM11.9093 27.4487C12.096 27.4487 12.246 27.5087 12.3593 27.6287C12.4726 27.7421 12.5293 27.8854 12.5293 28.0587V33.8387C12.5293 34.0121 12.4693 34.1587 12.3493 34.2787C12.236 34.3921 12.0826 34.4487 11.8893 34.4487C11.7293 34.4487 11.586 34.3921 11.4593 34.2787C11.3393 34.1587 11.2793 34.0121 11.2793 33.8387V28.0587C11.2793 27.8854 11.3426 27.7421 11.4693 27.6287C11.596 27.5087 11.7426 27.4487 11.9093 27.4487ZM7.4493 30.3587H11.9093V31.5087H7.4493V30.3587ZM18.8756 31.7787C18.8756 32.3254 18.7523 32.8087 18.5056 33.2287C18.2656 33.6421 17.939 33.9654 17.5256 34.1987C17.119 34.4321 16.6623 34.5487 16.1556 34.5487C15.649 34.5487 15.189 34.4321 14.7756 34.1987C14.369 33.9654 14.0423 33.6421 13.7956 33.2287C13.5556 32.8087 13.4356 32.3254 13.4356 31.7787C13.4356 31.2321 13.5556 30.7521 13.7956 30.3387C14.0423 29.9187 14.369 29.5921 14.7756 29.3587C15.189 29.1187 15.649 28.9987 16.1556 28.9987C16.6623 28.9987 17.119 29.1187 17.5256 29.3587C17.939 29.5921 18.2656 29.9187 18.5056 30.3387C18.7523 30.7521 18.8756 31.2321 18.8756 31.7787ZM17.6756 31.7787C17.6756 31.4387 17.6056 31.1454 17.4656 30.8987C17.3323 30.6454 17.149 30.4487 16.9156 30.3087C16.689 30.1687 16.4356 30.0987 16.1556 30.0987C15.8756 30.0987 15.619 30.1687 15.3856 30.3087C15.159 30.4487 14.9756 30.6454 14.8356 30.8987C14.7023 31.1454 14.6356 31.4387 14.6356 31.7787C14.6356 32.1121 14.7023 32.4054 14.8356 32.6587C14.9756 32.9054 15.159 33.0987 15.3856 33.2387C15.619 33.3787 15.8756 33.4487 16.1556 33.4487C16.4356 33.4487 16.689 33.3787 16.9156 33.2387C17.149 33.0987 17.3323 32.9054 17.4656 32.6587C17.6056 32.4054 17.6756 32.1121 17.6756 31.7787ZM22.4947 28.9987C23.028 28.9987 23.4214 29.1287 23.6747 29.3887C23.928 29.6421 24.0947 29.9721 24.1747 30.3787L24.0047 30.2887L24.0847 30.1287C24.1647 29.9754 24.288 29.8121 24.4547 29.6387C24.6214 29.4587 24.8214 29.3087 25.0547 29.1887C25.2947 29.0621 25.5614 28.9987 25.8547 28.9987C26.3347 28.9987 26.698 29.1021 26.9447 29.3087C27.198 29.5154 27.3714 29.7921 27.4647 30.1387C27.558 30.4787 27.6047 30.8587 27.6047 31.2787V33.8387C27.6047 34.0121 27.548 34.1587 27.4347 34.2787C27.3214 34.3921 27.178 34.4487 27.0047 34.4487C26.8314 34.4487 26.688 34.3921 26.5747 34.2787C26.4614 34.1587 26.4047 34.0121 26.4047 33.8387V31.2787C26.4047 31.0587 26.378 30.8621 26.3247 30.6887C26.2714 30.5087 26.1747 30.3654 26.0347 30.2587C25.8947 30.1521 25.6947 30.0987 25.4347 30.0987C25.1814 30.0987 24.9647 30.1521 24.7847 30.2587C24.6047 30.3654 24.468 30.5087 24.3747 30.6887C24.288 30.8621 24.2447 31.0587 24.2447 31.2787V33.8387C24.2447 34.0121 24.188 34.1587 24.0747 34.2787C23.9614 34.3921 23.818 34.4487 23.6447 34.4487C23.4714 34.4487 23.328 34.3921 23.2147 34.2787C23.1014 34.1587 23.0447 34.0121 23.0447 33.8387V31.2787C23.0447 31.0587 23.018 30.8621 22.9647 30.6887C22.9114 30.5087 22.8147 30.3654 22.6747 30.2587C22.5347 30.1521 22.3347 30.0987 22.0747 30.0987C21.8214 30.0987 21.6047 30.1521 21.4247 30.2587C21.2447 30.3654 21.108 30.5087 21.0147 30.6887C20.928 30.8621 20.8847 31.0587 20.8847 31.2787V33.8387C20.8847 34.0121 20.828 34.1587 20.7147 34.2787C20.6014 34.3921 20.458 34.4487 20.2847 34.4487C20.1114 34.4487 19.968 34.3921 19.8547 34.2787C19.7414 34.1587 19.6847 34.0121 19.6847 33.8387V29.7087C19.6847 29.5354 19.7414 29.3921 19.8547 29.2787C19.968 29.1587 20.1114 29.0987 20.2847 29.0987C20.458 29.0987 20.6014 29.1587 20.7147 29.2787C20.828 29.3921 20.8847 29.5354 20.8847 29.7087V30.1387L20.7347 30.1087C20.7947 29.9954 20.878 29.8754 20.9847 29.7487C21.0914 29.6154 21.2214 29.4921 21.3747 29.3787C21.528 29.2654 21.698 29.1754 21.8847 29.1087C22.0714 29.0354 22.2747 28.9987 22.4947 28.9987ZM31.1823 34.5487C30.6156 34.5487 30.1223 34.4321 29.7023 34.1987C29.2889 33.9587 28.9689 33.6354 28.7423 33.2287C28.5223 32.8221 28.4123 32.3621 28.4123 31.8487C28.4123 31.2487 28.5323 30.7387 28.7723 30.3187C29.0189 29.8921 29.3389 29.5654 29.7323 29.3387C30.1256 29.1121 30.5423 28.9987 30.9823 28.9987C31.3223 28.9987 31.6423 29.0687 31.9423 29.2087C32.2489 29.3487 32.5189 29.5421 32.7523 29.7887C32.9856 30.0287 33.1689 30.3087 33.3023 30.6287C33.4423 30.9487 33.5123 31.2887 33.5123 31.6487C33.5056 31.8087 33.4423 31.9387 33.3223 32.0387C33.2023 32.1387 33.0623 32.1887 32.9023 32.1887H29.0823L28.7823 31.1887H32.4523L32.2323 31.3887V31.1187C32.2189 30.9254 32.1489 30.7521 32.0223 30.5987C31.9023 30.4454 31.7489 30.3254 31.5623 30.2387C31.3823 30.1454 31.1889 30.0987 30.9823 30.0987C30.7823 30.0987 30.5956 30.1254 30.4223 30.1787C30.2489 30.2321 30.0989 30.3221 29.9723 30.4487C29.8456 30.5754 29.7456 30.7454 29.6723 30.9587C29.5989 31.1721 29.5623 31.4421 29.5623 31.7687C29.5623 32.1287 29.6356 32.4354 29.7823 32.6887C29.9356 32.9354 30.1289 33.1254 30.3623 33.2587C30.6023 33.3854 30.8556 33.4487 31.1223 33.4487C31.3689 33.4487 31.5656 33.4287 31.7123 33.3887C31.8589 33.3487 31.9756 33.3021 32.0623 33.2487C32.1556 33.1887 32.2389 33.1387 32.3123 33.0987C32.4323 33.0387 32.5456 33.0087 32.6523 33.0087C32.7989 33.0087 32.9189 33.0587 33.0123 33.1587C33.1123 33.2587 33.1623 33.3754 33.1623 33.5087C33.1623 33.6887 33.0689 33.8521 32.8823 33.9987C32.7089 34.1454 32.4656 34.2754 32.1523 34.3887C31.8389 34.4954 31.5156 34.5487 31.1823 34.5487Z" fill="#CBFB5E"/>
<path fill-rule="evenodd" clip-rule="evenodd" d="M11.6667 10.5667V20.7099H18.1667V15.6383H22.0667V20.7099H28.5667V10.5667L20.1167 1.69141L11.6667 10.5667Z" stroke="#CBFB5E" stroke-width="2.5" stroke-linecap="round" stroke-linejoin="round"/>
</svg>
